<svg xmlns="http://www.w3.org/2000/svg" width="30" height="30" viewBox="0 0 30 30" fill="none"><circle cx="15" cy="15.125" r="12.6558" fill="white"></circle><path d="M15 0C12.0333 0 9.13319 0.879734 6.66645 2.52796C4.19971 4.17618 2.27713 6.51886 1.14181 9.25975C0.00649929 12.0006 -0.290551 15.0166 0.288227 17.9263C0.867006 20.8361 2.29562 23.5088 4.3934 25.6066C6.49119 27.7044 9.16394 29.133 12.0737 29.7118C14.9834 30.2905 17.9994 29.9935 20.7403 28.8582C23.4811 27.7229 25.8238 25.8003 27.472 23.3335C29.1203 20.8668 30 17.9667 30 15C29.9954 11.0232 28.4135 7.21055 25.6015 4.39851C22.7894 1.58647 18.9768 0.00463153 15 0V0ZM23.6588 10.25L15.1025 21.8612C15.0015 21.9953 14.8748 22.1078 14.7298 22.1924C14.5848 22.2769 14.4244 22.3317 14.258 22.3536C14.0916 22.3754 13.9225 22.364 13.7606 22.3198C13.5987 22.2756 13.4472 22.1996 13.315 22.0962L7.20501 17.2112C7.0768 17.1086 6.97006 16.9818 6.89088 16.838C6.8117 16.6941 6.76162 16.5361 6.74352 16.3729C6.70695 16.0433 6.8028 15.7127 7.01 15.4537C7.21721 15.1948 7.51877 15.0288 7.84837 14.9923C8.01157 14.9741 8.17674 14.9884 8.33444 15.0341C8.49215 15.0798 8.6393 15.1562 8.7675 15.2587L13.8625 19.335L21.6463 8.77125C21.74 8.63063 21.8612 8.51048 22.0027 8.41804C22.1441 8.3256 22.3028 8.26281 22.4692 8.23345C22.6357 8.20408 22.8063 8.20877 22.9708 8.24721C23.1354 8.28566 23.2904 8.35707 23.4266 8.45712C23.5628 8.55718 23.6772 8.6838 23.7631 8.82935C23.8489 8.97489 23.9044 9.13633 23.9261 9.30391C23.9478 9.47149 23.9353 9.64173 23.8893 9.80434C23.8434 9.96695 23.7649 10.1186 23.6588 10.25V10.25Z" fill="#FF3951"></path></svg>