<svg xmlns="http://www.w3.org/2000/svg" width="100" height="100" viewBox="0 0 100 100" fill="none"><g clip-path="url(#clip0)"><path d="M100 0H0V100H100V0Z" fill="white"></path><path d="M100 0H0V100H100V0Z" fill="#FFE2D1"></path><g filter="url(#filter0_d)"><path d="M50 69.875C60.9767 69.875 69.875 60.9767 69.875 50C69.875 39.0233 60.9767 30.125 50 30.125C39.0233 30.125 30.125 39.0233 30.125 50C30.125 60.9767 39.0233 69.875 50 69.875Z" fill="white" fill-opacity="0.01"></path><path fill-rule="evenodd" clip-rule="evenodd" d="M20.5713 50.0171C20.5713 33.7741 33.7799 20.5718 49.9996 20.5718C66.2193 20.5718 79.4279 33.7741 79.4279 50.0171C79.4279 66.2261 66.2193 79.4284 49.9996 79.4284C33.7799 79.4284 20.5713 66.2261 20.5713 50.0171ZM60.7938 52.9954C61.1062 52.6831 61.5039 52.2005 61.5891 52.0869C62.0436 51.4907 62.2709 50.7525 62.2709 50.0171C62.2709 49.1909 62.0152 48.4243 61.5323 47.7997C61.4927 47.7601 61.4152 47.6758 61.3142 47.5659C61.1253 47.3602 60.8541 47.065 60.5949 46.806C58.2656 44.3075 52.1868 40.219 49.0054 38.9698C48.5225 38.7739 47.301 38.3452 46.6477 38.3168C46.0228 38.3168 45.4263 38.4587 44.8582 38.7427C44.148 39.1401 43.5799 39.7648 43.2674 40.503C43.0686 41.014 42.7561 42.5472 42.7561 42.5756C42.4437 44.2507 42.2732 46.9763 42.2732 49.9859C42.2732 52.8563 42.4437 55.4655 42.6993 57.1691C42.7064 57.1761 42.7308 57.2979 42.7687 57.4872C42.8841 58.0626 43.1246 59.2614 43.3811 59.7527C44.006 60.9452 45.2274 61.6834 46.5341 61.6834H46.6477C47.4999 61.655 49.2894 60.9168 49.2894 60.8884C52.3004 59.6392 58.2372 55.7495 60.6233 53.1658L60.7938 52.9954Z" fill="#FF8139" fill-opacity="0.01"></path></g><path d="M50 69.875C60.9767 69.875 69.875 60.9767 69.875 50C69.875 39.0233 60.9767 30.125 50 30.125C39.0233 30.125 30.125 39.0233 30.125 50C30.125 60.9767 39.0233 69.875 50 69.875Z" fill="white"></path><path fill-rule="evenodd" clip-rule="evenodd" d="M20.5713 50.0171C20.5713 33.7741 33.7799 20.5718 49.9996 20.5718C66.2193 20.5718 79.4279 33.7741 79.4279 50.0171C79.4279 66.2261 66.2193 79.4284 49.9996 79.4284C33.7799 79.4284 20.5713 66.2261 20.5713 50.0171ZM60.7938 52.9954C61.1062 52.6831 61.5039 52.2005 61.5891 52.0869C62.0436 51.4907 62.2709 50.7525 62.2709 50.0171C62.2709 49.1909 62.0152 48.4243 61.5323 47.7997C61.4927 47.7601 61.4152 47.6758 61.3142 47.5659C61.1253 47.3602 60.8541 47.065 60.5949 46.806C58.2656 44.3075 52.1868 40.219 49.0054 38.9698C48.5225 38.7739 47.301 38.3452 46.6477 38.3168C46.0228 38.3168 45.4263 38.4587 44.8582 38.7427C44.148 39.1401 43.5799 39.7648 43.2674 40.503C43.0686 41.014 42.7561 42.5472 42.7561 42.5756C42.4437 44.2507 42.2732 46.9763 42.2732 49.9859C42.2732 52.8563 42.4437 55.4655 42.6993 57.1691C42.7064 57.1761 42.7308 57.2979 42.7687 57.4872C42.8841 58.0626 43.1246 59.2614 43.3811 59.7527C44.006 60.9452 45.2274 61.6834 46.5341 61.6834H46.6477C47.4999 61.655 49.2894 60.9168 49.2894 60.8884C52.3004 59.6392 58.2372 55.7495 60.6233 53.1658L60.7938 52.9954Z" fill="#FF8139"></path></g><defs><filter id="filter0_d" x="-3.51871" y="2.50178" width="107.037" height="107.037" filterUnits="userSpaceOnUse" color-interpolation-filters="sRGB"><feGaussianBlur stdDeviation="12.045"></feGaussianBlur></filter><clipPath id="clip0"><rect width="100" height="100" fill="white"></rect></clipPath></defs></svg>