<svg xmlns="http://www.w3.org/2000/svg" width="124" height="124" viewBox="0 0 124 124" fill="none"><circle cx="3.32679" cy="50.2667" r="3.32679" fill="#FF554A"></circle><circle cx="3.32679" cy="73.7355" r="3.32679" fill="#FF554A"></circle><circle cx="3.32679" cy="97.2042" r="3.32679" fill="#FF554A"></circle><circle cx="3.32679" cy="120.673" r="3.32679" fill="#FF554A"></circle><circle cx="73.7356" cy="120.673" r="3.32679" fill="#FF554A"></circle><circle cx="73.7356" cy="97.2042" r="3.32679" fill="#FF554A"></circle><circle cx="73.7356" cy="73.7355" r="3.32679" fill="#FF554A"></circle><circle cx="73.7356" cy="50.2667" r="3.32679" fill="#FF554A"></circle><circle cx="73.7356" cy="26.796" r="3.32679" fill="#FF554A"></circle><circle cx="73.7356" cy="3.32679" r="3.32679" fill="#FF554A"></circle><circle cx="3.32679" cy="26.796" r="3.32679" fill="#FF554A"></circle><circle cx="3.32679" cy="3.32776" r="3.32679" fill="#FF554A"></circle><circle cx="26.7955" cy="50.2667" r="3.32679" fill="#FF554A"></circle><circle cx="26.7955" cy="73.7355" r="3.32679" fill="#FF554A"></circle><circle cx="26.7955" cy="97.2042" r="3.32679" fill="#FF554A"></circle><circle cx="97.2044" cy="120.673" r="3.32679" fill="#FF554A"></circle><circle cx="26.7955" cy="120.673" r="3.32679" fill="#FF554A"></circle><circle cx="97.2044" cy="97.2042" r="3.32679" fill="#FF554A"></circle><circle cx="97.2044" cy="73.7355" r="3.32679" fill="#FF554A"></circle><circle cx="97.2044" cy="50.2667" r="3.32679" fill="#FF554A"></circle><circle cx="97.2044" cy="26.796" r="3.32679" fill="#FF554A"></circle><circle cx="97.2044" cy="3.32679" r="3.32679" fill="#FF554A"></circle><circle cx="26.7955" cy="26.796" r="3.32679" fill="#FF554A"></circle><circle cx="26.7955" cy="3.32679" r="3.32679" fill="#FF554A"></circle><circle cx="50.2667" cy="50.2667" r="3.32679" fill="#FF554A"></circle><circle cx="50.2667" cy="73.7355" r="3.32679" fill="#FF554A"></circle><circle cx="120.673" cy="120.673" r="3.32679" fill="#FF554A"></circle><circle cx="50.2667" cy="97.2042" r="3.32679" fill="#FF554A"></circle><circle cx="50.2667" cy="120.673" r="3.32679" fill="#FF554A"></circle><circle cx="120.673" cy="97.2042" r="3.32679" fill="#FF554A"></circle><circle cx="120.673" cy="73.7355" r="3.32679" fill="#FF554A"></circle><circle cx="120.673" cy="50.2667" r="3.32679" fill="#FF554A"></circle><circle cx="120.673" cy="26.796" r="3.32679" fill="#FF554A"></circle><circle cx="120.673" cy="3.32679" r="3.32679" fill="#FF554A"></circle><circle cx="50.2667" cy="26.796" r="3.32679" fill="#FF554A"></circle><circle cx="50.2667" cy="3.32679" r="3.32679" fill="#FF554A"></circle></svg>