<svg width="1242" height="699" viewBox="0 0 1242 699" fill="none" xmlns="http://www.w3.org/2000/svg">
<path d="M0 0H1242V699H0V0Z" fill="#357AFF"/>
<path d="M303.785 299.779C294.939 299.779 292.382 303.702 292.382 312.355V326.71H315.976L313.611 349.901H292.391V420.282H264.075V349.901H245V326.71H264.075V312.75C264.075 289.357 273.508 277 299.825 277C305.343 276.991 310.852 277.312 316.324 277.981V299.806L303.785 299.779Z" fill="white"/>
<path d="M317.939 370.545C317.939 344.402 330.323 324.712 356.274 324.712C370.427 324.712 379.071 331.99 383.205 341.029V326.71H410.329V420.282H383.205V406.129C379.272 415.176 370.427 422.253 356.274 422.253C330.323 422.253 317.939 402.591 317.939 376.42V370.545ZM346.246 376.842C346.246 390.793 351.351 400.033 364.524 400.033C376.128 400.033 382.022 391.582 382.022 378.217V368.821C382.022 355.457 376.128 347.005 364.524 347.005C351.351 347.005 346.246 356.245 346.246 370.196V376.842V376.842Z" fill="white"/>
<path d="M469.304 324.74C480.304 324.74 490.726 327.104 496.427 331.028L490.139 351.084C484.245 348.279 477.801 346.794 471.265 346.757C455.93 346.757 449.266 355.603 449.266 370.746V376.246C449.266 391.389 455.948 400.235 471.265 400.235C477.801 400.198 484.245 398.713 490.139 395.908L496.427 415.955C490.726 419.888 480.313 422.253 469.304 422.253C436.075 422.253 420.941 404.36 420.941 375.659V371.333C420.941 342.632 436.075 324.74 469.304 324.74Z" fill="white"/>
<path d="M500.16 377.071V368.821C500.16 342.284 515.294 324.822 546.167 324.822C575.261 324.822 588.039 342.513 588.039 368.464V383.405H528.457C529.053 396.183 534.755 401.885 550.457 401.885C561.081 401.885 572.282 399.721 580.541 396.183L585.72 415.57C578.25 419.512 562.914 422.454 549.357 422.454C513.525 422.445 500.16 404.571 500.16 377.071ZM528.466 364.88H562.676V362.524C562.676 352.303 558.551 344.191 546.176 344.191C533.389 344.2 528.466 352.267 528.466 364.843V364.88Z" fill="white"/>
<path d="M692.967 376.446C692.967 402.589 680.39 422.279 654.468 422.279C640.315 422.279 630.488 415.202 626.556 406.155V420.308H599.826V279.722L628.132 277.155V339.671C632.257 331.421 641.305 324.729 654.477 324.729C680.427 324.729 692.976 344.391 692.976 370.562L692.967 376.446ZM664.661 369.957C664.661 356.784 659.555 346.958 645.989 346.958C634.384 346.958 628.096 355.208 628.096 368.582V378.408C628.096 391.773 634.384 400.032 645.989 400.032C659.555 400.032 664.661 390.205 664.661 377.033V369.957Z" fill="white"/>
<path d="M702.436 375.852V371.14C702.436 344.2 717.771 324.74 749.029 324.74C780.287 324.74 795.631 344.2 795.631 371.14V375.852C795.631 402.783 780.296 422.253 749.038 422.253C717.78 422.253 702.436 402.783 702.436 375.852ZM767.316 369.169C767.316 356.786 762.201 346.959 748.983 346.959C735.765 346.959 730.696 356.786 730.696 369.169V377.823C730.696 390.207 735.811 400.033 748.983 400.033C762.155 400.033 767.316 390.207 767.316 377.823V369.169Z" fill="white"/>
<path d="M805.045 375.852V371.14C805.045 344.2 820.38 324.74 851.638 324.74C882.896 324.74 898.232 344.2 898.232 371.14V375.852C898.232 402.783 882.896 422.253 851.638 422.253C820.38 422.253 805.045 402.783 805.045 375.852ZM869.925 369.169C869.925 356.786 864.81 346.959 851.638 346.959C838.466 346.959 833.36 356.786 833.36 369.169V377.823C833.36 390.207 838.466 400.033 851.638 400.033C864.81 400.033 869.925 390.207 869.925 377.823V369.169Z" fill="white"/>
<path d="M937.153 371.332L965.065 326.709H995.14L965.853 372.908L996.323 420.281H966.248L937.153 374.448V420.281H908.838V279.722L937.153 277.155V371.332Z" fill="white"/>
</svg>
