<svg xmlns="http://www.w3.org/2000/svg" width="100" height="100" viewBox="0 0 100 100" fill="none"><g clip-path="url(#clip0)"><path d="M100 0H0V100H100V0Z" fill="white"></path><path d="M100 0H0V100H100V0Z" fill="#EAE7FF"></path><g filter="url(#filter0_d)"><path d="M71.3454 22.8833H28.6538C25.4654 22.8833 22.8828 25.5465 22.8828 28.8309V33.073C22.8828 34.5829 23.4384 36.0381 24.4407 37.1396L40.6507 54.9679C40.9579 55.3044 41.385 55.4971 41.8345 55.4971L56.6039 55.5431C57.0311 55.546 57.4443 55.3734 57.7486 55.0628L75.3881 37.2201C76.4937 36.1043 77.1163 34.5742 77.1163 32.9809V28.828C77.1163 25.5436 74.5338 22.8833 71.3454 22.8833Z" fill="#6A35FF" fill-opacity="0.01"></path><path d="M55.7886 60.4101L42.6245 60.3699C41.8009 60.367 41.1309 61.0543 41.1309 61.9028V74.9598C41.1309 75.6932 41.4938 76.3777 42.0941 76.7745C42.4375 77.0017 42.8312 77.1168 43.2248 77.1168C43.5208 77.1168 43.8167 77.0535 44.0959 76.9241L56.0454 71.313C56.7937 70.9593 57.2739 70.1943 57.2739 69.3487V61.943C57.2739 61.1004 56.6094 60.413 55.7886 60.4101Z" fill="#4D1DD5" fill-opacity="0.01"></path></g><path d="M71.3454 22.8833H28.6538C25.4654 22.8833 22.8828 25.5465 22.8828 28.8309V33.073C22.8828 34.5829 23.4384 36.0381 24.4407 37.1396L40.6507 54.9679C40.9579 55.3044 41.385 55.4971 41.8345 55.4971L56.6039 55.5431C57.0311 55.546 57.4443 55.3734 57.7486 55.0628L75.3881 37.2201C76.4937 36.1043 77.1163 34.5742 77.1163 32.9809V28.828C77.1163 25.5436 74.5338 22.8833 71.3454 22.8833Z" fill="#6A35FF"></path><path d="M55.7886 60.4101L42.6245 60.3699C41.8009 60.367 41.1309 61.0543 41.1309 61.9028V74.9598C41.1309 75.6932 41.4938 76.3777 42.0941 76.7745C42.4375 77.0017 42.8312 77.1168 43.2248 77.1168C43.5208 77.1168 43.8167 77.0535 44.0959 76.9241L56.0454 71.313C56.7937 70.9593 57.2739 70.1943 57.2739 69.3487V61.943C57.2739 61.1004 56.6094 60.413 55.7886 60.4101Z" fill="#4D1DD5"></path></g><defs><filter id="filter0_d" x="0.413612" y="6.02907" width="99.1719" height="99.1719" filterUnits="userSpaceOnUse" color-interpolation-filters="sRGB"><feGaussianBlur stdDeviation="11.2346"></feGaussianBlur></filter><clipPath id="clip0"><rect width="100" height="100" fill="white"></rect></clipPath></defs></svg>