<svg xmlns="http://www.w3.org/2000/svg" width="100" height="100" viewBox="0 0 100 100" fill="none"><g clip-path="url(#clip0)"><path d="M100 0H0V100H100V0Z" fill="white"></path><path d="M100 0H0V100H100V0Z" fill="#DEEBFF"></path><g filter="url(#filter0_d)"><path d="M49.5226 72.3663C61.6685 72.3663 71.5146 62.5201 71.5146 50.3743C71.5146 38.2284 61.6685 28.3823 49.5226 28.3823C37.3768 28.3823 27.5306 38.2284 27.5306 50.3743C27.5306 62.5201 37.3768 72.3663 49.5226 72.3663Z" fill="white" fill-opacity="0.01"></path><path fill-rule="evenodd" clip-rule="evenodd" d="M76.1472 41.1206L78.3894 43.362C80.1645 45.1053 81.1299 47.4712 81.1299 49.9617C81.1611 52.4522 80.1957 54.8212 78.4517 56.5926C78.4309 56.6154 78.4102 56.6355 78.3894 56.6555C78.379 56.6656 78.3687 56.6756 78.3583 56.686L76.1472 58.8962C75.2752 59.7679 74.777 60.9509 74.777 62.1992V65.4026C74.777 70.5703 70.5728 74.776 65.4032 74.776H62.1956C60.9499 74.776 59.7665 75.271 58.8945 76.1427L56.6523 78.3841C54.8149 80.2239 52.417 81.1236 50.019 81.1236C47.6211 81.1236 45.2231 80.2239 43.3858 78.4183L41.1124 76.1427C40.2404 75.271 39.057 74.776 37.8113 74.776H34.6037C29.4341 74.776 25.23 70.5703 25.23 65.4026V62.1992C25.23 60.9509 24.7317 59.7679 23.8597 58.8651L21.6175 56.6548C17.9739 53.0156 17.9427 47.0665 21.5863 43.3962L23.8597 41.1206C24.7317 40.2489 25.23 39.0659 25.23 37.7896V34.6142C25.23 29.4465 29.4341 25.247 34.6037 25.247H37.8113C39.057 25.247 40.2404 24.7458 41.1124 23.8741L43.3546 21.6327C46.9982 17.9624 52.9464 17.9624 56.6211 21.6047L58.8945 23.8741C59.7665 24.7458 60.9499 25.247 62.1956 25.247H65.4032C70.5728 25.247 74.777 29.4465 74.777 34.6142V37.8238C74.777 39.0659 75.2752 40.2489 76.1472 41.1206ZM64.4874 42.7964C65.3992 41.8846 65.3992 40.4063 64.4874 39.4945C63.5756 38.5827 62.0972 38.5827 61.1854 39.4945L44.16 56.5199L44.1595 56.5204L38.8148 51.1695C37.9035 50.2571 36.4252 50.2563 35.5129 51.1675C34.6005 52.0788 34.5997 53.5571 35.511 54.4695L40.8561 59.8208L40.8565 59.8213C41.2902 60.2552 41.8051 60.5994 42.3718 60.8343C42.9386 61.0692 43.5461 61.19 44.1595 61.19C44.773 61.19 45.3804 61.0692 45.9472 60.8343C46.5137 60.5995 47.0284 60.2555 47.462 59.8218L47.4625 59.8213L64.4874 42.7964Z" fill="#3F80FD" fill-opacity="0.01"></path></g><path d="M49.5226 72.3663C61.6685 72.3663 71.5146 62.5201 71.5146 50.3743C71.5146 38.2284 61.6685 28.3823 49.5226 28.3823C37.3768 28.3823 27.5306 38.2284 27.5306 50.3743C27.5306 62.5201 37.3768 72.3663 49.5226 72.3663Z" fill="white"></path><path fill-rule="evenodd" clip-rule="evenodd" d="M76.1472 41.1206L78.3894 43.362C80.1645 45.1053 81.1299 47.4712 81.1299 49.9617C81.1611 52.4522 80.1957 54.8212 78.4517 56.5926C78.4309 56.6154 78.4102 56.6355 78.3894 56.6555C78.379 56.6656 78.3687 56.6756 78.3583 56.686L76.1472 58.8962C75.2752 59.7679 74.777 60.9509 74.777 62.1992V65.4026C74.777 70.5703 70.5728 74.776 65.4032 74.776H62.1956C60.9499 74.776 59.7665 75.271 58.8945 76.1427L56.6523 78.3841C54.8149 80.2239 52.417 81.1236 50.019 81.1236C47.6211 81.1236 45.2231 80.2239 43.3858 78.4183L41.1124 76.1427C40.2404 75.271 39.057 74.776 37.8113 74.776H34.6037C29.4341 74.776 25.23 70.5703 25.23 65.4026V62.1992C25.23 60.9509 24.7317 59.7679 23.8597 58.8651L21.6175 56.6548C17.9739 53.0156 17.9427 47.0665 21.5863 43.3962L23.8597 41.1206C24.7317 40.2489 25.23 39.0659 25.23 37.7896V34.6142C25.23 29.4465 29.4341 25.247 34.6037 25.247H37.8113C39.057 25.247 40.2404 24.7458 41.1124 23.8741L43.3546 21.6327C46.9982 17.9624 52.9464 17.9624 56.6211 21.6047L58.8945 23.8741C59.7665 24.7458 60.9499 25.247 62.1956 25.247H65.4032C70.5728 25.247 74.777 29.4465 74.777 34.6142V37.8238C74.777 39.0659 75.2752 40.2489 76.1472 41.1206ZM64.4874 42.7964C65.3992 41.8846 65.3992 40.4063 64.4874 39.4945C63.5756 38.5827 62.0972 38.5827 61.1854 39.4945L44.16 56.5199L44.1595 56.5204L38.8148 51.1695C37.9035 50.2571 36.4252 50.2563 35.5129 51.1675C34.6005 52.0788 34.5997 53.5571 35.511 54.4695L40.8561 59.8208L40.8565 59.8213C41.2902 60.2552 41.8051 60.5994 42.3718 60.8343C42.9386 61.0692 43.5461 61.19 44.1595 61.19C44.773 61.19 45.3804 61.0692 45.9472 60.8343C46.5137 60.5995 47.0284 60.2555 47.462 59.8218L47.4625 59.8213L64.4874 42.7964Z" fill="#3F80FD"></path></g><defs><filter id="filter0_d" x="2.1143" y="6.90872" width="95.7712" height="95.7568" filterUnits="userSpaceOnUse" color-interpolation-filters="sRGB"><feGaussianBlur stdDeviation="8.37742"></feGaussianBlur></filter><clipPath id="clip0"><rect width="100" height="100" fill="white"></rect></clipPath></defs></svg>