<svg xmlns="http://www.w3.org/2000/svg" width="126" height="126" viewBox="0 0 126 126" fill="none"><rect width="126" height="126" fill="white"></rect><g filter="url(#filter0_d)"><path d="M97.5118 55.3611L66.6204 80.997C64.4967 82.7594 61.4191 82.7594 59.2954 80.997L28.4041 55.3611L59.2955 29.7251C61.4192 27.9627 64.4968 27.9627 66.6205 29.7251L97.5118 55.3611Z" fill="#C6283B" fill-opacity="0.01"></path><path d="M66.6189 29.7251C65.5572 28.8439 64.2569 28.4033 62.9565 28.4033V82.3187C64.2569 82.3187 65.5572 81.8782 66.6189 80.9969L97.5103 55.3611L66.6189 29.7251Z" fill="#C6283B" fill-opacity="0.01"></path><g filter="url(#filter1_d)"><path d="M91.3021 61.4987V38.3993C91.3021 34.1335 89.1685 32 84.9027 32H41.0115C36.7457 32 34.6122 34.1335 34.6122 38.3993V61.4987L59.5013 82.2334C61.5033 83.9013 64.4108 83.9013 66.4129 82.2334L91.3021 61.4987Z" fill="white" fill-opacity="0.01"></path></g><path d="M91.6898 61.4987V38.3993C91.6898 34.1335 89.5562 32 85.2904 32H41.3992C37.1334 32 34.9999 34.1335 34.9999 38.3993V61.4987L59.889 82.2334C61.891 83.9013 64.7985 83.9013 66.8006 82.2334L91.6898 61.4987Z" fill="white" fill-opacity="0.01"></path><g filter="url(#filter2_d)"><path d="M69.0994 48.2284C70.4019 48.2284 71.4578 47.1725 71.4578 45.8701C71.4578 44.5676 70.4019 43.5117 69.0994 43.5117H46.4378C45.1353 43.5117 44.0795 44.5676 44.0795 45.8701C44.0795 47.1725 45.1353 48.2284 46.4378 48.2284H69.0994Z" fill="#FF3951" fill-opacity="0.01"></path></g><path d="M69.0198 48.2284C70.3223 48.2284 71.3782 47.1725 71.3782 45.8701C71.3782 44.5676 70.3223 43.5117 69.0198 43.5117H46.3582C45.0557 43.5117 43.9999 44.5676 43.9999 45.8701C43.9999 47.1725 45.0557 48.2284 46.3582 48.2284H69.0198Z" fill="#FF3951" fill-opacity="0.01"></path><g filter="url(#filter3_d)"><path d="M79.4749 56.6454C80.7774 56.6454 81.8333 55.5895 81.8333 54.2871C81.8333 52.9846 80.7774 51.9287 79.4749 51.9287H46.4383C45.1358 51.9287 44.08 52.9846 44.08 54.2871C44.08 55.5895 45.1358 56.6454 46.4383 56.6454H79.4749Z" fill="#FF3951" fill-opacity="0.01"></path></g><path d="M79.3948 56.6454C80.6973 56.6454 81.7532 55.5895 81.7532 54.2871C81.7532 52.9846 80.6973 51.9287 79.3948 51.9287H46.3582C45.0557 51.9287 43.9999 52.9846 43.9999 54.2871C43.9999 55.5895 45.0557 56.6454 46.3582 56.6454H79.3948Z" fill="#FF3951" fill-opacity="0.01"></path><path d="M97.5106 55.3613L66.6192 80.9973C64.4955 82.7597 61.4179 82.7597 59.2942 80.9973L28.403 55.3613V91.776C28.403 94.9435 30.9706 97.5112 34.1381 97.5112H91.7754C94.9427 97.5112 97.5106 94.9435 97.5106 91.776V55.3613Z" fill="#FF3951" fill-opacity="0.01"></path><path d="M66.6189 80.9973C65.5571 81.8784 64.2567 82.3191 62.9565 82.3191V97.5112H91.7752C94.9425 97.5112 97.5103 94.9435 97.5103 91.776V55.3613L66.6189 80.9973Z" fill="#FF3951" fill-opacity="0.01"></path><path d="M66.6195 80.9975C64.4958 82.7599 61.4182 82.7599 59.2945 80.9975L56.0463 78.3018L30.2432 95.9844C31.2661 96.9317 32.6342 97.5114 34.1384 97.5114H91.7757C93.2798 97.5114 94.6479 96.9317 95.6707 95.9844L69.8678 78.3018L66.6195 80.9975Z" fill="#FF3951" fill-opacity="0.01"></path><path d="M95.6703 95.9844L69.8673 78.3018L66.6189 80.9974C65.5571 81.8785 64.2567 82.3192 62.9565 82.3192V97.5114H91.7752C93.2794 97.5114 94.6475 96.9317 95.6703 95.9844Z" fill="#FF3951" fill-opacity="0.01"></path></g><path d="M97.5119 55.3611L66.6205 80.997C64.4968 82.7594 61.4192 82.7594 59.2955 80.997L28.4042 55.3611L59.2956 29.7251C61.4193 27.9627 64.4969 27.9627 66.6206 29.7251L97.5119 55.3611Z" fill="#C6283B"></path><path d="M66.6191 29.7251C65.5574 28.8439 64.2571 28.4033 62.9567 28.4033V82.3187C64.2571 82.3187 65.5574 81.8782 66.6191 80.9969L97.5105 55.3611L66.6191 29.7251Z" fill="#C6283B"></path><g filter="url(#filter4_d)"><path d="M91.3022 61.4987V38.3993C91.3022 34.1335 89.1686 32 84.9028 32H41.0116C36.7458 32 34.6123 34.1335 34.6123 38.3993V61.4987L59.5014 82.2334C61.5034 83.9013 64.4109 83.9013 66.413 82.2334L91.3022 61.4987Z" fill="white" fill-opacity="0.01"></path></g><path d="M91.6899 61.4987V38.3993C91.6899 34.1335 89.5563 32 85.2905 32H41.3993C37.1335 32 35 34.1335 35 38.3993V61.4987L59.8891 82.2334C61.8911 83.9013 64.7986 83.9013 66.8007 82.2334L91.6899 61.4987Z" fill="white"></path><g filter="url(#filter5_d)"><path d="M69.0995 48.2284C70.402 48.2284 71.4579 47.1725 71.4579 45.8701C71.4579 44.5676 70.402 43.5117 69.0995 43.5117H46.4379C45.1355 43.5117 44.0796 44.5676 44.0796 45.8701C44.0796 47.1725 45.1355 48.2284 46.4379 48.2284H69.0995Z" fill="#FF3951" fill-opacity="0.01"></path></g><path d="M69.0199 48.2284C70.3224 48.2284 71.3783 47.1725 71.3783 45.8701C71.3783 44.5676 70.3224 43.5117 69.0199 43.5117H46.3583C45.0559 43.5117 44 44.5676 44 45.8701C44 47.1725 45.0559 48.2284 46.3583 48.2284H69.0199Z" fill="#FF3951"></path><g filter="url(#filter6_d)"><path d="M79.475 56.6454C80.7775 56.6454 81.8334 55.5895 81.8334 54.2871C81.8334 52.9846 80.7775 51.9287 79.475 51.9287H46.4384C45.1359 51.9287 44.0801 52.9846 44.0801 54.2871C44.0801 55.5895 45.1359 56.6454 46.4384 56.6454H79.475Z" fill="#FF3951" fill-opacity="0.01"></path></g><path d="M79.3949 56.6454C80.6974 56.6454 81.7533 55.5895 81.7533 54.2871C81.7533 52.9846 80.6974 51.9287 79.3949 51.9287H46.3583C45.0559 51.9287 44 52.9846 44 54.2871C44 55.5895 45.0559 56.6454 46.3583 56.6454H79.3949Z" fill="#FF3951"></path><path d="M97.5107 55.3613L66.6193 80.9973C64.4956 82.7597 61.418 82.7597 59.2943 80.9973L28.4031 55.3613V91.776C28.4031 94.9435 30.9707 97.5112 34.1382 97.5112H91.7755C94.9429 97.5112 97.5107 94.9435 97.5107 91.776V55.3613Z" fill="#FF3951"></path><path d="M66.6191 80.9973C65.5573 81.8784 64.2569 82.3191 62.9567 82.3191V97.5112H91.7754C94.9427 97.5112 97.5105 94.9435 97.5105 91.776V55.3613L66.6191 80.9973Z" fill="#FF3951"></path><path d="M66.6196 80.9975C64.4959 82.7599 61.4183 82.7599 59.2946 80.9975L56.0464 78.3018L30.2433 95.9844C31.2662 96.9317 32.6343 97.5114 34.1385 97.5114H91.7758C93.2799 97.5114 94.648 96.9317 95.6708 95.9844L69.8679 78.3018L66.6196 80.9975Z" fill="#FF3951"></path><path d="M95.6705 95.9844L69.8675 78.3018L66.6191 80.9974C65.5573 81.8785 64.2569 82.3192 62.9567 82.3192V97.5114H91.7754C93.2796 97.5114 94.6477 96.9317 95.6705 95.9844Z" fill="#FF3951"></path><defs><filter id="filter0_d" x="12.6787" y="18.2288" width="100.557" height="100.556" filterUnits="userSpaceOnUse" color-interpolation-filters="sRGB"><feGaussianBlur stdDeviation="7.86211"></feGaussianBlur></filter><filter id="filter1_d" x="31.8373" y="29.2251" width="62.2396" height="57.034" filterUnits="userSpaceOnUse" color-interpolation-filters="sRGB"><feGaussianBlur stdDeviation="1.38743"></feGaussianBlur></filter><filter id="filter2_d" x="41.3046" y="41.6618" width="32.928" height="10.2664" filterUnits="userSpaceOnUse" color-interpolation-filters="sRGB"><feGaussianBlur stdDeviation="1.38743"></feGaussianBlur></filter><filter id="filter3_d" x="41.3051" y="50.0788" width="43.303" height="10.2664" filterUnits="userSpaceOnUse" color-interpolation-filters="sRGB"><feGaussianBlur stdDeviation="1.38743"></feGaussianBlur></filter><filter id="filter4_d" x="31.8374" y="29.2251" width="62.2396" height="57.034" filterUnits="userSpaceOnUse" color-interpolation-filters="sRGB"><feGaussianBlur stdDeviation="1.38743"></feGaussianBlur></filter><filter id="filter5_d" x="41.3047" y="41.6618" width="32.928" height="10.2664" filterUnits="userSpaceOnUse" color-interpolation-filters="sRGB"><feGaussianBlur stdDeviation="1.38743"></feGaussianBlur></filter><filter id="filter6_d" x="41.3052" y="50.0788" width="43.303" height="10.2664" filterUnits="userSpaceOnUse" color-interpolation-filters="sRGB"><feGaussianBlur stdDeviation="1.38743"></feGaussianBlur></filter></defs></svg>