<svg xmlns="http://www.w3.org/2000/svg" width="80" height="80" viewBox="0 0 80 80" fill="none"><path d="M80 0H0V80H80V0Z" fill="white"></path><g filter="url(#filter0_d)"><path d="M58.0044 31.6719H31.5275V45.7785H58.0044V31.6719Z" fill="#FF3951" fill-opacity="0.01"></path><path fill-rule="evenodd" clip-rule="evenodd" d="M53.1577 60.528C53.1577 58.4137 54.8692 56.7021 56.9834 56.7021C59.0724 56.7021 60.7839 58.4137 60.7839 60.528C60.7839 62.617 59.0724 64.3284 56.9834 64.3284C54.8692 64.3284 53.1577 62.617 53.1577 60.528ZM24.8425 60.528C24.8425 58.4138 26.554 56.7023 28.6682 56.7023C30.7572 56.7023 32.4687 58.4138 32.4687 60.528C32.4687 62.617 30.7572 64.3284 28.6682 64.3284C26.554 64.3284 24.8425 62.617 24.8425 60.528Z" fill="#FF3951" fill-opacity="0.01"></path><path fill-rule="evenodd" clip-rule="evenodd" d="M60.7845 24.6884C62.3198 24.6884 63.3265 25.217 64.3333 26.3747C65.3401 27.5325 65.5162 29.1937 65.2897 30.7013L62.8987 47.2122C62.4456 50.3861 59.7273 52.7243 56.5309 52.7243H29.0714C25.7239 52.7243 22.9553 50.157 22.6784 46.8372L20.3629 19.4004L16.5624 18.746C15.5556 18.5698 14.8509 17.5882 15.027 16.5815C15.2032 15.5495 16.1848 14.87 17.2167 15.021L23.2196 15.9271C24.0753 16.0806 24.7046 16.7828 24.7801 17.6386L25.2583 23.2764C25.3338 24.0844 25.9882 24.6884 26.7936 24.6884H60.7845ZM45.532 37.7745H52.5038C53.5609 37.7745 54.3915 36.9188 54.3915 35.8868C54.3915 34.8297 53.5609 33.9991 52.5038 33.9991H45.532C44.4749 33.9991 43.6443 34.8297 43.6443 35.8868C43.6443 36.9188 44.4749 37.7745 45.532 37.7745Z" fill="#FF3951" fill-opacity="0.01"></path></g><path d="M58.0044 31.6719H31.5275V45.7785H58.0044V31.6719Z" fill="#FF3951"></path><path fill-rule="evenodd" clip-rule="evenodd" d="M53.1577 60.528C53.1577 58.4137 54.8692 56.7021 56.9834 56.7021C59.0724 56.7021 60.7839 58.4137 60.7839 60.528C60.7839 62.617 59.0724 64.3284 56.9834 64.3284C54.8692 64.3284 53.1577 62.617 53.1577 60.528ZM24.8425 60.528C24.8425 58.4138 26.554 56.7023 28.6682 56.7023C30.7572 56.7023 32.4687 58.4138 32.4687 60.528C32.4687 62.617 30.7572 64.3284 28.6682 64.3284C26.554 64.3284 24.8425 62.617 24.8425 60.528Z" fill="#FF3951"></path><path fill-rule="evenodd" clip-rule="evenodd" d="M60.7845 24.6884C62.3198 24.6884 63.3265 25.217 64.3333 26.3747C65.3401 27.5325 65.5162 29.1937 65.2897 30.7013L62.8987 47.2122C62.4456 50.3861 59.7273 52.7243 56.5309 52.7243H29.0714C25.7239 52.7243 22.9553 50.157 22.6784 46.8372L20.3629 19.4004L16.5624 18.746C15.5556 18.5698 14.8509 17.5882 15.027 16.5815C15.2032 15.5495 16.1848 14.87 17.2167 15.021L23.2196 15.9271C24.0753 16.0806 24.7046 16.7828 24.7801 17.6386L25.2583 23.2764C25.3338 24.0844 25.9882 24.6884 26.7936 24.6884H60.7845ZM45.532 37.7745H52.5038C53.5609 37.7745 54.3915 36.9188 54.3915 35.8868C54.3915 34.8297 53.5609 33.9991 52.5038 33.9991H45.532C44.4749 33.9991 43.6443 34.8297 43.6443 35.8868C43.6443 36.9188 44.4749 37.7745 45.532 37.7745Z" fill="#FF3951"></path><path opacity="0.1" d="M80 0H0V80H80V0Z" fill="#FF3951"></path><defs><filter id="filter0_d" x="5.61968" y="9.37181" width="69.1381" height="68.0891" filterUnits="userSpaceOnUse" color-interpolation-filters="sRGB"><feGaussianBlur stdDeviation="4.69016"></feGaussianBlur></filter></defs></svg>