<svg xmlns="http://www.w3.org/2000/svg" width="100" height="100" viewBox="0 0 100 100" fill="none"><g clip-path="url(#clip0)"><path d="M100 0H0V100H100V0Z" fill="white"></path><path d="M100 0H0V100H100V0Z" fill="#FFEFEF"></path><g filter="url(#filter0_d)"><path fill-rule="evenodd" clip-rule="evenodd" d="M78.0466 55.2738C79.2405 55.9081 80.1616 56.9094 80.8097 57.9108C82.0719 59.9804 81.9696 62.5172 80.7415 64.7537L78.3536 68.7592C77.0914 70.8955 74.7377 72.2307 72.3157 72.2307C71.1217 72.2307 69.7913 71.8969 68.6997 71.2293C67.8128 70.6619 66.7894 70.4616 65.6978 70.4616C62.3207 70.4616 59.4893 73.2321 59.387 76.5367C59.387 80.3754 56.2486 83.3796 52.3257 83.3796H47.6863C43.7293 83.3796 40.5909 80.3754 40.5909 76.5367C40.5227 73.2321 37.6913 70.4616 34.3142 70.4616C33.1885 70.4616 32.1651 70.6619 31.3123 71.2293C30.2207 71.8969 28.8561 72.2307 27.6963 72.2307C25.2402 72.2307 22.8864 70.8955 21.6243 68.7592L19.2705 64.7537C18.0083 62.584 17.9401 59.9804 19.2023 57.9108C19.7481 56.9094 20.7714 55.9081 21.9313 55.2738C22.8864 54.8065 23.5005 54.0388 24.0804 53.1375C25.786 50.2669 24.7626 46.495 21.8631 44.7926C18.4859 42.89 17.3943 38.6507 19.3387 35.3461L21.6243 31.4073C23.6028 28.1027 27.8328 26.9345 31.244 28.8705C34.2118 30.4727 38.0666 29.4046 39.8063 26.5673C40.3521 25.6326 40.6591 24.6313 40.5909 23.6299C40.5227 22.328 40.8979 21.093 41.5461 20.0916C42.8082 18.0221 45.0938 16.6869 47.584 16.6201H52.3939C54.9182 16.6201 57.2038 18.0221 58.4659 20.0916C59.08 21.093 59.4893 22.328 59.387 23.6299C59.3188 24.6313 59.6258 25.6326 60.1716 26.5673C61.9113 29.4046 65.766 30.4727 68.768 28.8705C72.1451 26.9345 76.4092 28.1027 78.3536 31.4073L80.6392 35.3461C82.6177 38.6507 81.5261 42.89 78.1148 44.7926C75.2153 46.495 74.1919 50.2669 75.9316 53.1375C76.4774 54.0388 77.0914 54.8065 78.0466 55.2738ZM40.3519 50.0327C40.3519 55.2733 44.6843 59.4458 50.0399 59.4458C55.3956 59.4458 59.6256 55.2733 59.6256 50.0327C59.6256 44.7921 55.3956 40.5862 50.0399 40.5862C44.6843 40.5862 40.3519 44.7921 40.3519 50.0327Z" fill="#FF3951" fill-opacity="0.01"></path></g><path d="M50.1865 63.7927C58.0215 63.7927 64.373 57.4412 64.373 49.6062C64.373 41.7712 58.0215 35.4197 50.1865 35.4197C42.3515 35.4197 36 41.7712 36 49.6062C36 57.4412 42.3515 63.7927 50.1865 63.7927Z" fill="white"></path><path fill-rule="evenodd" clip-rule="evenodd" d="M78.0466 55.2738C79.2405 55.9081 80.1616 56.9094 80.8097 57.9108C82.0719 59.9804 81.9696 62.5172 80.7415 64.7537L78.3536 68.7592C77.0914 70.8955 74.7377 72.2307 72.3157 72.2307C71.1217 72.2307 69.7913 71.8969 68.6997 71.2293C67.8128 70.6619 66.7894 70.4616 65.6978 70.4616C62.3207 70.4616 59.4893 73.2321 59.387 76.5367C59.387 80.3754 56.2486 83.3796 52.3257 83.3796H47.6863C43.7293 83.3796 40.5909 80.3754 40.5909 76.5367C40.5227 73.2321 37.6913 70.4616 34.3142 70.4616C33.1885 70.4616 32.1651 70.6619 31.3123 71.2293C30.2207 71.8969 28.8561 72.2307 27.6963 72.2307C25.2402 72.2307 22.8864 70.8955 21.6243 68.7592L19.2705 64.7537C18.0083 62.584 17.9401 59.9804 19.2023 57.9108C19.7481 56.9094 20.7714 55.9081 21.9313 55.2738C22.8864 54.8065 23.5005 54.0388 24.0804 53.1375C25.786 50.2669 24.7626 46.495 21.8631 44.7926C18.4859 42.89 17.3943 38.6507 19.3387 35.3461L21.6243 31.4073C23.6028 28.1027 27.8328 26.9345 31.244 28.8705C34.2118 30.4727 38.0666 29.4046 39.8063 26.5673C40.3521 25.6326 40.6591 24.6313 40.5909 23.6299C40.5227 22.328 40.8979 21.093 41.5461 20.0916C42.8082 18.0221 45.0938 16.6869 47.584 16.6201H52.3939C54.9182 16.6201 57.2038 18.0221 58.4659 20.0916C59.08 21.093 59.4893 22.328 59.387 23.6299C59.3188 24.6313 59.6258 25.6326 60.1716 26.5673C61.9113 29.4046 65.766 30.4727 68.768 28.8705C72.1451 26.9345 76.4092 28.1027 78.3536 31.4073L80.6392 35.3461C82.6177 38.6507 81.5261 42.89 78.1148 44.7926C75.2153 46.495 74.1919 50.2669 75.9316 53.1375C76.4774 54.0388 77.0914 54.8065 78.0466 55.2738ZM40.3519 50.0327C40.3519 55.2733 44.6843 59.4458 50.0399 59.4458C55.3956 59.4458 59.6256 55.2733 59.6256 50.0327C59.6256 44.7921 55.3956 40.5862 50.0399 40.5862C44.6843 40.5862 40.3519 44.7921 40.3519 50.0327Z" fill="#FF3951"></path></g><defs><filter id="filter0_d" x="-8.51494" y="-3.48291" width="117.029" height="120.368" filterUnits="userSpaceOnUse" color-interpolation-filters="sRGB"><feGaussianBlur stdDeviation="13.402"></feGaussianBlur></filter><clipPath id="clip0"><rect width="100" height="100" fill="white"></rect></clipPath></defs></svg>