<svg xmlns="http://www.w3.org/2000/svg" width="384" height="364" viewBox="0 0 384 364" fill="none"><g clip-path="url(#clip0)"><path d="M384 0H0V364H384V0Z" fill="white"></path><path d="M384 0H0V364.259H384V0Z" fill="#FFC226"></path><g filter="url(#filter0_d)"><path d="M188.596 48.8675L62.2333 71.1486C47.3562 73.7719 37.4225 87.9587 40.0457 102.836L59.1616 211.247C61.7848 226.125 75.9717 236.058 90.8488 233.435L217.211 211.154C232.089 208.531 242.022 194.344 239.399 179.467L220.283 71.0551C217.66 56.178 203.473 46.2443 188.596 48.8675Z" fill="white" fill-opacity="0.01"></path></g><path d="M188.596 48.7498L62.2333 71.031C47.3562 73.6542 37.4225 87.8411 40.0457 102.718L59.1616 211.13C61.7848 226.007 75.9717 235.941 90.8488 233.317L217.211 211.036C232.089 208.413 242.022 194.226 239.399 179.349L220.283 70.9375C217.66 56.0603 203.473 46.1266 188.596 48.7498Z" fill="white"></path><path opacity="0.13" d="M111.388 162.245C73.5379 158.572 101.653 211.896 75.5544 216.498L213.638 192.15C220.35 190.966 224.831 184.566 223.648 177.855L214.856 127.996L203.927 66.0103C193.595 77.7726 198.825 114.907 174.881 116.279C150.936 117.651 149.239 165.919 111.388 162.245Z" fill="#FF8139"></path><g filter="url(#filter1_d)"><path d="M76.6644 215.328C102.615 210.752 65.7313 162.912 114.422 161.838C163.112 160.763 146.049 118.591 174.865 116.59C203.681 114.588 190.112 75.419 203.038 65.9546" stroke="#FF8139" stroke-opacity="0.01" stroke-width="5.33951" stroke-linecap="round"></path></g><path d="M77 215.328C102.951 210.752 66.0669 162.912 114.758 161.838C163.448 160.763 146.385 118.591 175.201 116.59C204.017 114.588 190.448 75.419 203.374 65.9546" stroke="#FF8139" stroke-width="5.33951" stroke-linecap="round"></path><g filter="url(#filter2_d)"><path d="M321.766 153.106L195.404 130.825C180.526 128.202 166.34 138.135 163.716 153.012L144.6 261.424C141.977 276.301 151.911 290.488 166.788 293.111L293.151 315.392C308.028 318.016 322.215 308.082 324.838 293.205L343.954 184.793C346.577 169.916 336.643 155.729 321.766 153.106Z" fill="white" fill-opacity="0.01"></path></g><path d="M321.766 153.031L195.404 130.75C180.526 128.127 166.34 138.06 163.716 152.937L144.6 261.349C141.977 276.226 151.911 290.413 166.788 293.036L293.151 315.317C308.028 317.941 322.215 308.007 324.838 293.13L343.954 184.718C346.577 169.841 336.643 155.654 321.766 153.031Z" fill="white"></path><g filter="url(#filter3_d)"><path d="M181.298 257.049C181.895 253.667 179.636 250.442 176.255 249.846C172.873 249.25 169.648 251.508 169.051 254.89L167.091 266.008C166.495 269.389 168.753 272.614 172.135 273.211C175.517 273.807 178.742 271.549 179.338 268.167L181.298 257.049Z" fill="#FFC226" fill-opacity="0.01"></path><path d="M205.744 238.09C206.341 234.708 204.082 231.483 200.701 230.887C197.319 230.291 194.094 232.549 193.497 235.931L187.557 269.617C186.961 272.999 189.219 276.224 192.601 276.82C195.983 277.416 199.208 275.158 199.805 271.776L205.744 238.09Z" fill="#FFC226" fill-opacity="0.01"></path><path d="M227.212 236.012C227.809 232.63 225.55 229.405 222.169 228.809C218.787 228.213 215.562 230.471 214.965 233.853L208.023 273.225C207.426 276.607 209.685 279.832 213.067 280.429C216.448 281.025 219.673 278.767 220.27 275.385L227.212 236.012Z" fill="#FFC226" fill-opacity="0.01"></path><path d="M252.674 211.292C253.271 207.91 251.012 204.685 247.631 204.089C244.249 203.492 241.024 205.751 240.427 209.133L228.49 276.835C227.893 280.217 230.151 283.442 233.533 284.038C236.915 284.634 240.14 282.376 240.737 278.994L252.674 211.292Z" fill="#FFC226" fill-opacity="0.01"></path><path d="M272.419 218.996C273.016 215.614 270.757 212.389 267.376 211.793C263.994 211.197 260.769 213.455 260.172 216.837L248.957 280.443C248.361 283.824 250.619 287.05 254.001 287.646C257.383 288.242 260.608 285.984 261.204 282.602L272.419 218.996Z" fill="#FFC226" fill-opacity="0.01"></path><path d="M296.774 200.55C297.371 197.168 295.112 193.943 291.731 193.347C288.349 192.751 285.124 195.009 284.527 198.391L269.423 284.053C268.826 287.435 271.085 290.66 274.466 291.256C277.848 291.852 281.073 289.594 281.67 286.212L296.774 200.55Z" fill="#FFC226" fill-opacity="0.01"></path><path d="M321.257 181.384C321.854 178.002 319.595 174.777 316.214 174.181C312.832 173.584 309.607 175.843 309.01 179.225L289.89 287.662C289.294 291.044 291.552 294.269 294.934 294.865C298.316 295.461 301.541 293.203 302.137 289.821L321.257 181.384Z" fill="#FFC226" fill-opacity="0.01"></path></g><path d="M181.298 256.948C181.895 253.566 179.636 250.341 176.255 249.745C172.873 249.148 169.648 251.407 169.051 254.789L167.091 265.906C166.495 269.288 168.753 272.513 172.135 273.11C175.517 273.706 178.742 271.448 179.338 268.066L181.298 256.948Z" fill="#FFC226"></path><path d="M205.744 237.989C206.341 234.607 204.082 231.382 200.701 230.786C197.319 230.189 194.094 232.448 193.497 235.83L187.557 269.516C186.961 272.898 189.219 276.123 192.601 276.719C195.983 277.315 199.208 275.057 199.805 271.675L205.744 237.989Z" fill="#FFC226"></path><path d="M227.212 235.911C227.809 232.529 225.55 229.304 222.169 228.708C218.787 228.111 215.562 230.37 214.965 233.752L208.023 273.124C207.426 276.506 209.685 279.731 213.067 280.328C216.448 280.924 219.673 278.666 220.27 275.284L227.212 235.911Z" fill="#FFC226"></path><path d="M252.674 211.191C253.271 207.809 251.012 204.584 247.631 203.988C244.249 203.391 241.024 205.65 240.427 209.032L228.49 276.734C227.893 280.116 230.151 283.341 233.533 283.937C236.915 284.533 240.14 282.275 240.737 278.893L252.674 211.191Z" fill="#FFC226"></path><path d="M272.419 218.895C273.016 215.513 270.757 212.288 267.376 211.692C263.994 211.095 260.769 213.354 260.172 216.736L248.957 280.341C248.361 283.723 250.619 286.948 254.001 287.545C257.383 288.141 260.608 285.883 261.204 282.501L272.419 218.895Z" fill="#FFC226"></path><path d="M296.774 200.449C297.371 197.067 295.112 193.842 291.731 193.246C288.349 192.649 285.124 194.908 284.527 198.29L269.423 283.952C268.826 287.334 271.085 290.559 274.466 291.155C277.848 291.751 281.073 289.493 281.67 286.111L296.774 200.449Z" fill="#FFC226"></path><path d="M321.257 181.283C321.854 177.901 319.595 174.676 316.214 174.08C312.832 173.483 309.607 175.742 309.01 179.124L289.89 287.561C289.294 290.943 291.552 294.168 294.934 294.764C298.316 295.36 301.541 293.102 302.137 289.72L321.257 181.283Z" fill="#FFC226"></path></g><defs><filter id="filter0_d" x="1.10458" y="14.7415" width="277.236" height="262.45" filterUnits="userSpaceOnUse" color-interpolation-filters="sRGB"><feGaussianBlur stdDeviation="19.2605"></feGaussianBlur></filter><filter id="filter1_d" x="68.608" y="60.4547" width="142.486" height="165.486" filterUnits="userSpaceOnUse" color-interpolation-filters="sRGB"><feGaussianBlur stdDeviation="2.69311"></feGaussianBlur></filter><filter id="filter2_d" x="105.659" y="96.6988" width="277.236" height="262.45" filterUnits="userSpaceOnUse" color-interpolation-filters="sRGB"><feGaussianBlur stdDeviation="19.2605"></feGaussianBlur></filter><filter id="filter3_d" x="157.995" y="167.085" width="172.357" height="138.875" filterUnits="userSpaceOnUse" color-interpolation-filters="sRGB"><feGaussianBlur stdDeviation="4.5"></feGaussianBlur></filter><clipPath id="clip0"><rect width="384" height="364" fill="white"></rect></clipPath></defs></svg>