<svg xmlns="http://www.w3.org/2000/svg" width="384" height="364" viewBox="0 0 384 364" fill="none"><g clip-path="url(#clip0)"><path d="M384 0H0V364H384V0Z" fill="white"></path><path d="M384 0H0V364.259H384V0Z" fill="#6A35FF"></path><mask id="mask0" maskUnits="userSpaceOnUse" x="0" y="0" width="384" height="364"><path d="M384 0H0V364H384V0Z" fill="#FFC226"></path></mask><g mask="url(#mask0)"><g filter="url(#filter0_d)"><path d="M194.558 45.5773L75.9914 53.8682C59.4632 55.024 47.0014 69.3597 48.1572 85.8879L57.6797 222.066C58.8355 238.594 73.1712 251.056 89.6993 249.901L208.266 241.61C224.794 240.454 237.256 226.118 236.1 209.59L226.578 73.4115C225.422 56.8833 211.086 44.4215 194.558 45.5773Z" fill="white" fill-opacity="0.01"></path></g><path d="M194.493 45.0926L75.927 53.3836C59.3988 54.5394 46.937 68.8751 48.0927 85.4032L57.6153 221.582C58.771 238.11 73.1067 250.572 89.6349 249.416L208.201 241.125C224.73 239.969 237.191 225.634 236.036 209.105L226.513 72.9269C225.357 56.3987 211.022 43.9369 194.493 45.0926Z" fill="white"></path><g filter="url(#filter1_d)"><path d="M86.7989 104.211C92.0087 103.846 95.9368 99.3276 95.5725 94.1178C95.2082 88.908 90.6895 84.98 85.4797 85.3443C80.2699 85.7086 76.3419 90.2273 76.7062 95.437C77.0705 100.647 81.5892 104.575 86.7989 104.211Z" fill="white" fill-opacity="0.01"></path><path d="M85.3509 83.5042C83.1397 83.6589 81.0239 84.4657 79.2712 85.8228C77.5185 87.1799 76.2076 89.0262 75.5042 91.1283C74.8009 93.2305 74.7367 95.494 75.3197 97.6326C75.9028 99.7712 77.1069 101.689 78.7798 103.143C80.4528 104.598 82.5194 105.523 84.7183 105.803C86.9173 106.083 89.1498 105.704 91.1336 104.715C93.1174 103.726 94.7633 102.171 95.8632 100.246C96.9632 98.3215 97.4677 96.1141 97.3131 93.9028C97.1024 90.9389 95.7246 88.1796 93.4821 86.2301C91.2395 84.2807 88.3153 83.3004 85.3509 83.5042ZM92.339 90.6928L86.5668 99.7933C86.4984 99.8985 86.4099 99.989 86.3062 100.06C86.2025 100.13 86.0859 100.179 85.963 100.204C85.8401 100.229 85.7135 100.23 85.5905 100.205C85.4675 100.181 85.3506 100.132 85.2467 100.062L80.4379 96.739C80.337 96.6693 80.2508 96.5803 80.1843 96.4772C80.1178 96.3741 80.0723 96.2589 80.0503 96.1382C80.0058 95.8945 80.06 95.643 80.201 95.4392C80.3419 95.2355 80.558 95.096 80.8018 95.0516C80.9225 95.0296 81.0464 95.0316 81.1663 95.0574C81.2862 95.0833 81.3999 95.1325 81.5008 95.2023L85.5108 97.975L90.7619 89.6955C90.8244 89.5858 90.9086 89.49 91.0092 89.4137C91.1098 89.3374 91.2248 89.2823 91.3473 89.2518C91.4698 89.2212 91.5973 89.2158 91.7219 89.2359C91.8466 89.256 91.9658 89.3011 92.0726 89.3686C92.1793 89.4361 92.2712 89.5245 92.3428 89.6285C92.4143 89.7325 92.4641 89.85 92.489 89.9737C92.5139 90.0975 92.5135 90.2251 92.4877 90.3487C92.4619 90.4723 92.4113 90.5893 92.339 90.6928Z" fill="#6A35FF" fill-opacity="0.01"></path></g><path d="M86.8739 104.211C92.0837 103.846 96.0117 99.3276 95.6474 94.1178C95.2831 88.908 90.7644 84.98 85.5546 85.3443C80.3449 85.7086 76.4168 90.2273 76.7811 95.437C77.1454 100.647 81.6641 104.575 86.8739 104.211Z" fill="white"></path><path d="M85.4259 83.5042C83.2147 83.6589 81.0989 84.4657 79.3462 85.8228C77.5935 87.1799 76.2826 89.0262 75.5792 91.1283C74.8759 93.2305 74.8117 95.494 75.3947 97.6326C75.9778 99.7712 77.1819 101.689 78.8548 103.143C80.5278 104.598 82.5944 105.523 84.7933 105.803C86.9923 106.083 89.2248 105.704 91.2086 104.715C93.1924 103.726 94.8383 102.171 95.9382 100.246C97.0382 98.3215 97.5427 96.1141 97.3881 93.9028C97.1774 90.9389 95.7996 88.1796 93.5571 86.2301C91.3145 84.2807 88.3903 83.3004 85.4259 83.5042ZM92.414 90.6928L86.6418 99.7933C86.5734 99.8985 86.4849 99.989 86.3812 100.06C86.2775 100.13 86.1609 100.179 86.038 100.204C85.9151 100.229 85.7885 100.23 85.6655 100.205C85.5425 100.181 85.4256 100.132 85.3217 100.062L80.5129 96.739C80.412 96.6693 80.3258 96.5803 80.2593 96.4772C80.1928 96.3741 80.1473 96.2589 80.1253 96.1382C80.0808 95.8945 80.135 95.643 80.276 95.4392C80.4169 95.2355 80.633 95.096 80.8768 95.0516C80.9975 95.0296 81.1214 95.0316 81.2413 95.0574C81.3612 95.0833 81.4749 95.1325 81.5758 95.2023L85.5858 97.975L90.8369 89.6955C90.8994 89.5858 90.9836 89.49 91.0842 89.4137C91.1848 89.3374 91.2998 89.2823 91.4223 89.2518C91.5448 89.2212 91.6723 89.2158 91.7969 89.2359C91.9216 89.256 92.0408 89.3011 92.1476 89.3686C92.2543 89.4361 92.3462 89.5245 92.4178 89.6285C92.4893 89.7325 92.5391 89.85 92.564 89.9737C92.5889 90.0975 92.5885 90.2251 92.5627 90.3487C92.5369 90.4723 92.4863 90.5893 92.414 90.6928Z" fill="#6A35FF"></path><path opacity="0.9" d="M196.018 81.6741L107.916 87.8348C105.161 88.0274 103.084 90.4167 103.277 93.1714C103.469 95.9261 105.859 98.0031 108.613 97.8105L196.715 91.6498C199.47 91.4571 201.547 89.0679 201.354 86.3132C201.162 83.5585 198.772 81.4815 196.018 81.6741Z" fill="#D9DBE9"></path><g filter="url(#filter2_d)"><path d="M88.7811 132.557C93.9909 132.193 97.919 127.674 97.5547 122.464C97.1904 117.254 92.6717 113.326 87.4619 113.691C82.2521 114.055 78.3241 118.574 78.6884 123.783C79.0527 128.993 83.5714 132.921 88.7811 132.557Z" fill="white" fill-opacity="0.01"></path><path d="M87.3331 111.851C85.1218 112.005 83.0061 112.812 81.2534 114.169C79.5007 115.526 78.1898 117.373 77.4864 119.475C76.7831 121.577 76.7188 123.84 77.3019 125.979C77.8849 128.117 79.0891 130.035 80.762 131.489C82.435 132.944 84.5016 133.869 86.7005 134.149C88.8995 134.429 91.132 134.05 93.1158 133.061C95.0995 132.072 96.7455 130.517 97.8454 128.592C98.9454 126.668 99.4499 124.46 99.2953 122.249C99.0846 119.285 97.7068 116.526 95.4643 114.576C93.2217 112.627 90.2975 111.647 87.3331 111.851ZM94.3212 119.039L88.5489 128.14C88.4806 128.245 88.3921 128.335 88.2884 128.406C88.1847 128.476 88.068 128.526 87.9452 128.551C87.8223 128.576 87.6956 128.576 87.5727 128.551C87.4497 128.527 87.3328 128.478 87.2289 128.408L82.4201 125.085C82.3192 125.016 82.233 124.927 82.1665 124.823C82.1 124.72 82.0544 124.605 82.0324 124.485C81.988 124.241 82.0422 123.989 82.1832 123.786C82.3241 123.582 82.5402 123.442 82.784 123.398C82.9047 123.376 83.0285 123.378 83.1485 123.404C83.2684 123.43 83.3821 123.479 83.483 123.549L87.493 126.321L92.7441 118.042C92.8066 117.932 92.8907 117.836 92.9913 117.76C93.092 117.684 93.207 117.629 93.3295 117.598C93.452 117.568 93.5794 117.562 93.7041 117.582C93.8287 117.602 93.948 117.647 94.0547 117.715C94.1614 117.782 94.2534 117.871 94.3249 117.975C94.3965 118.079 94.4463 118.196 94.4712 118.32C94.4961 118.444 94.4956 118.571 94.4699 118.695C94.4441 118.819 94.3935 118.936 94.3212 119.039Z" fill="#6A35FF" fill-opacity="0.01"></path></g><path d="M88.7811 132.733C93.9909 132.368 97.919 127.85 97.5547 122.64C97.1904 117.43 92.6717 113.502 87.4619 113.866C82.2521 114.231 78.3241 118.749 78.6884 123.959C79.0527 129.169 83.5714 133.097 88.7811 132.733Z" fill="white"></path><path d="M87.3331 112.027C85.1218 112.181 83.0061 112.988 81.2534 114.345C79.5007 115.702 78.1898 117.549 77.4864 119.651C76.7831 121.753 76.7188 124.015 77.3019 126.154C77.8849 128.292 79.0891 130.211 80.762 131.665C82.435 133.12 84.5016 134.045 86.7005 134.325C88.8995 134.605 91.132 134.226 93.1158 133.237C95.0995 132.248 96.7455 130.692 97.8454 128.767C98.9454 126.843 99.4499 124.636 99.2953 122.425C99.0846 119.461 97.7068 116.701 95.4643 114.751C93.2217 112.802 90.2975 111.823 87.3331 112.027ZM94.3212 119.215L88.5489 128.316C88.4806 128.421 88.3921 128.511 88.2884 128.582C88.1847 128.652 88.068 128.701 87.9452 128.726C87.8223 128.751 87.6956 128.751 87.5727 128.726C87.4497 128.702 87.3328 128.654 87.2289 128.584L82.4201 125.261C82.3192 125.192 82.233 125.103 82.1665 124.999C82.1 124.896 82.0544 124.781 82.0324 124.661C81.988 124.417 82.0422 124.165 82.1832 123.962C82.3241 123.758 82.5402 123.618 82.784 123.574C82.9047 123.552 83.0285 123.554 83.1485 123.58C83.2684 123.606 83.3821 123.655 83.483 123.725L87.493 126.497L92.7441 118.218C92.8066 118.108 92.8907 118.012 92.9913 117.936C93.092 117.86 93.207 117.805 93.3295 117.774C93.452 117.744 93.5794 117.738 93.7041 117.758C93.8287 117.778 93.948 117.822 94.0547 117.89C94.1614 117.957 94.2534 118.047 94.3249 118.151C94.3965 118.255 94.4463 118.372 94.4712 118.496C94.4961 118.62 94.4956 118.747 94.4699 118.871C94.4441 118.995 94.3935 119.112 94.3212 119.215Z" fill="#6A35FF"></path><path opacity="0.9" d="M164.218 112.383L109.898 116.181C107.143 116.374 105.066 118.763 105.259 121.518C105.451 124.273 107.841 126.35 110.595 126.157L164.916 122.358C167.671 122.166 169.748 119.777 169.555 117.022C169.362 114.267 166.973 112.19 164.218 112.383Z" fill="#D9DBE9"></path><path d="M92.7455 189.249C97.9553 188.885 101.883 184.366 101.519 179.156C101.155 173.947 96.6361 170.019 91.4263 170.383C86.2165 170.747 82.2885 175.266 82.6528 180.476C83.0171 185.685 87.5358 189.613 92.7455 189.249Z" fill="white"></path><path d="M91.2976 168.543C89.0863 168.698 86.9705 169.505 85.2178 170.862C83.4651 172.219 82.1542 174.065 81.4509 176.168C80.7475 178.27 80.6833 180.533 81.2664 182.672C81.8494 184.81 83.0535 186.728 84.7265 188.182C86.3994 189.637 88.466 190.562 90.665 190.842C92.8639 191.122 95.0964 190.743 97.0802 189.754C99.064 188.765 100.71 187.21 101.81 185.285C102.91 183.361 103.414 181.153 103.26 178.942C103.049 175.978 101.671 173.219 99.4287 171.269C97.1862 169.32 94.262 168.34 91.2976 168.543ZM98.2857 175.732L92.5134 184.833C92.4451 184.938 92.3565 185.028 92.2528 185.099C92.1492 185.169 92.0325 185.218 91.9096 185.243C91.7867 185.268 91.6601 185.269 91.5371 185.244C91.4141 185.22 91.2972 185.171 91.1933 185.101L86.3846 181.778C86.2837 181.708 86.1975 181.619 86.131 181.516C86.0644 181.413 86.0189 181.298 85.9969 181.177C85.9524 180.934 86.0067 180.682 86.1476 180.478C86.2886 180.275 86.5047 180.135 86.7484 180.091C86.8691 180.069 86.993 180.071 87.1129 180.097C87.2328 180.122 87.3465 180.172 87.4474 180.241L91.4575 183.014L96.7086 174.735C96.7711 174.625 96.8552 174.529 96.9558 174.453C97.0564 174.377 97.1715 174.322 97.294 174.291C97.4165 174.26 97.5439 174.255 97.6685 174.275C97.7932 174.295 97.9125 174.34 98.0192 174.408C98.1259 174.475 98.2178 174.564 98.2894 174.668C98.361 174.772 98.4107 174.889 98.4356 175.013C98.4605 175.137 98.4601 175.264 98.4343 175.388C98.4085 175.511 98.358 175.629 98.2857 175.732Z" fill="#D9DBE9"></path><path opacity="0.5" d="M168.183 169.076L113.863 172.874C111.108 173.067 109.031 175.456 109.224 178.211C109.416 180.965 111.806 183.042 114.56 182.85L168.881 179.051C171.636 178.859 173.713 176.469 173.52 173.715C173.327 170.96 170.938 168.883 168.183 169.076Z" fill="#D9DBE9"></path><g filter="url(#filter3_d)"><path d="M90.7634 160.903C95.9732 160.539 99.9012 156.02 99.5369 150.81C99.1726 145.6 94.6539 141.672 89.4441 142.037C84.2343 142.401 80.3063 146.92 80.6706 152.129C81.0349 157.339 85.5536 161.267 90.7634 160.903Z" fill="white" fill-opacity="0.01"></path><path d="M89.3153 140.197C87.104 140.351 84.9883 141.158 83.2356 142.515C81.4829 143.872 80.172 145.719 79.4686 147.821C78.7652 149.923 78.701 152.186 79.2841 154.325C79.8671 156.464 81.0713 158.381 82.7442 159.836C84.4171 161.29 86.4838 162.215 88.6827 162.495C90.8816 162.775 93.1142 162.396 95.0979 161.407C97.0817 160.418 98.7276 158.863 99.8276 156.939C100.928 155.014 101.432 152.807 101.278 150.595C101.067 147.631 99.689 144.872 97.4464 142.923C95.2039 140.973 92.2797 139.993 89.3153 140.197ZM96.3034 147.385L90.5311 156.486C90.4628 156.591 90.3742 156.681 90.2706 156.752C90.1669 156.823 90.0502 156.872 89.9273 156.897C89.8044 156.922 89.6778 156.922 89.5548 156.898C89.4318 156.873 89.315 156.824 89.211 156.754L84.4023 153.432C84.3014 153.362 84.2152 153.273 84.1487 153.17C84.0822 153.067 84.0366 152.951 84.0146 152.831C83.9702 152.587 84.0244 152.336 84.1653 152.132C84.3063 151.928 84.5224 151.788 84.7662 151.744C84.8869 151.722 85.0107 151.724 85.1306 151.75C85.2506 151.776 85.3642 151.825 85.4651 151.895L89.4752 154.667L94.7263 146.388C94.7888 146.278 94.8729 146.182 94.9735 146.106C95.0741 146.03 95.1892 145.975 95.3117 145.944C95.4342 145.914 95.5616 145.908 95.6863 145.928C95.8109 145.948 95.9302 145.994 96.0369 146.061C96.1436 146.129 96.2355 146.217 96.3071 146.321C96.3787 146.425 96.4284 146.542 96.4533 146.666C96.4783 146.79 96.4778 146.918 96.452 147.041C96.4263 147.165 96.3757 147.282 96.3034 147.385Z" fill="#6A35FF" fill-opacity="0.01"></path></g><path d="M90.874 160.903C96.0838 160.539 100.012 156.02 99.6475 150.81C99.2832 145.6 94.7645 141.672 89.5547 142.037C84.3449 142.401 80.4169 146.92 80.7812 152.129C81.1455 157.339 85.6642 161.267 90.874 160.903Z" fill="white"></path><path d="M89.4259 140.197C87.2146 140.351 85.0989 141.158 83.3462 142.515C81.5935 143.872 80.2826 145.719 79.5792 147.821C78.8758 149.923 78.8116 152.186 79.3947 154.325C79.9777 156.464 81.1819 158.381 82.8548 159.836C84.5277 161.29 86.5944 162.215 88.7933 162.495C90.9922 162.775 93.2248 162.396 95.2085 161.407C97.1923 160.418 98.8382 158.863 99.9382 156.939C101.039 155.014 101.543 152.807 101.389 150.595C101.178 147.631 99.7996 144.872 97.557 142.923C95.3145 140.973 92.3903 139.993 89.4259 140.197ZM96.414 147.385L90.6417 156.486C90.5734 156.591 90.4848 156.681 90.3812 156.752C90.2775 156.823 90.1608 156.872 90.0379 156.897C89.915 156.922 89.7884 156.922 89.6654 156.898C89.5424 156.873 89.4256 156.824 89.3216 156.754L84.5129 153.432C84.412 153.362 84.3258 153.273 84.2593 153.17C84.1928 153.067 84.1472 152.951 84.1252 152.831C84.0808 152.587 84.135 152.336 84.2759 152.132C84.4169 151.928 84.633 151.788 84.8768 151.744C84.9975 151.722 85.1213 151.724 85.2412 151.75C85.3612 151.776 85.4748 151.825 85.5757 151.895L89.5858 154.667L94.8369 146.388C94.8994 146.278 94.9835 146.182 95.0841 146.106C95.1847 146.03 95.2998 145.975 95.4223 145.944C95.5448 145.914 95.6722 145.908 95.7969 145.928C95.9215 145.948 96.0408 145.994 96.1475 146.061C96.2542 146.129 96.3461 146.217 96.4177 146.321C96.4893 146.425 96.539 146.542 96.5639 146.666C96.5889 146.79 96.5884 146.918 96.5626 147.041C96.5369 147.165 96.4863 147.282 96.414 147.385Z" fill="#6A35FF"></path><path opacity="0.9" d="M199.982 138.367L111.88 144.527C109.125 144.72 107.048 147.109 107.241 149.864C107.433 152.618 109.823 154.695 112.577 154.503L200.679 148.342C203.434 148.15 205.511 145.76 205.318 143.006C205.126 140.251 202.736 138.174 199.982 138.367Z" fill="#D9DBE9"></path><path d="M94.7277 217.596C99.9375 217.232 103.866 212.713 103.501 207.503C103.137 202.294 98.6183 198.365 93.4085 198.73C88.1987 199.094 84.2707 203.613 84.635 208.823C84.9993 214.032 89.5179 217.96 94.7277 217.596Z" fill="white"></path><path d="M93.2797 196.89C91.0685 197.044 88.9527 197.851 87.2 199.208C85.4473 200.565 84.1364 202.412 83.433 204.514C82.7297 206.616 82.6655 208.879 83.2485 211.018C83.8316 213.157 85.0357 215.074 86.7087 216.528C88.3816 217.983 90.4482 218.908 92.6472 219.188C94.8461 219.468 97.0786 219.089 99.0624 218.1C101.046 217.111 102.692 215.556 103.792 213.631C104.892 211.707 105.397 209.499 105.242 207.288C105.031 204.324 103.653 201.565 101.411 199.615C99.1684 197.666 96.2441 196.686 93.2797 196.89ZM100.268 204.078L94.4956 213.179C94.4273 213.284 94.3387 213.374 94.235 213.445C94.1314 213.515 94.0147 213.565 93.8918 213.59C93.7689 213.615 93.6423 213.615 93.5193 213.59C93.3963 213.566 93.2794 213.517 93.1755 213.447L88.3667 210.124C88.2658 210.055 88.1797 209.966 88.1131 209.863C88.0466 209.759 88.0011 209.644 87.9791 209.524C87.9346 209.28 87.9888 209.028 88.1298 208.825C88.2707 208.621 88.4869 208.481 88.7306 208.437C88.8513 208.415 88.9752 208.417 89.0951 208.443C89.215 208.469 89.3287 208.518 89.4296 208.588L93.4396 211.36L98.6907 203.081C98.7533 202.971 98.8374 202.875 98.938 202.799C99.0386 202.723 99.1536 202.668 99.2761 202.637C99.3986 202.607 99.5261 202.601 99.6507 202.621C99.7754 202.641 99.8947 202.686 100.001 202.754C100.108 202.821 100.2 202.91 100.272 203.014C100.343 203.118 100.393 203.235 100.418 203.359C100.443 203.483 100.442 203.61 100.416 203.734C100.391 203.858 100.34 203.975 100.268 204.078Z" fill="#D9DBE9"></path><path opacity="0.5" d="M203.969 195.373L115.867 201.533C113.112 201.726 111.035 204.115 111.228 206.87C111.42 209.625 113.81 211.702 116.564 211.509L204.666 205.348C207.421 205.156 209.498 202.766 209.305 200.012C209.113 197.257 206.723 195.18 203.969 195.373Z" fill="#D9DBE9"></path><g filter="url(#filter4_d)"><path d="M308.009 114.869L208.788 107.931C192.26 106.775 177.924 119.237 176.768 135.765L167.401 269.724C166.245 286.252 178.707 300.588 195.235 301.743L294.456 308.682C310.984 309.837 325.32 297.375 326.476 280.847L335.843 146.888C336.999 130.36 324.537 116.025 308.009 114.869Z" fill="white" fill-opacity="0.01"></path></g><path d="M308.009 116.031L208.788 109.093C192.26 107.937 177.924 120.399 176.768 136.927L167.401 270.886C166.245 287.414 178.707 301.75 195.235 302.905L294.456 309.844C310.984 310.999 325.32 298.538 326.476 282.009L335.843 148.05C336.999 131.522 324.537 117.187 308.009 116.031Z" fill="white"></path><path d="M234.91 153.43L276.574 156.343" stroke="#D9DBE9" stroke-width="4"></path><path d="M283.169 158.175L280.711 193.318" stroke="#D9DBE9" stroke-width="3.58656"></path><path d="M253.142 218.419L251.182 246.449" stroke="#D9DBE9" stroke-width="3.67628"></path><g filter="url(#filter5_d)"><path d="M220.375 172.661C230.402 173.362 239.098 165.803 239.799 155.776C240.5 145.75 232.941 137.054 222.914 136.353C212.888 135.652 204.192 143.211 203.491 153.237C202.79 163.264 210.349 171.96 220.375 172.661Z" fill="#3FCFFD" fill-opacity="0.01"></path></g><path d="M220.375 172.577C230.402 173.278 239.098 165.719 239.799 155.693C240.5 145.667 232.941 136.971 222.914 136.269C212.888 135.568 204.192 143.128 203.491 153.154C202.79 163.18 210.349 171.876 220.375 172.577Z" fill="#3FCFFD"></path><g filter="url(#filter6_d)"><path d="M302.036 144.72L268.765 142.394C265.46 142.162 262.593 144.655 262.361 147.96L261.054 166.657C260.823 169.962 263.315 172.829 266.621 173.061L299.891 175.387C303.197 175.618 306.064 173.126 306.295 169.82L307.603 151.124C307.834 147.818 305.341 144.951 302.036 144.72Z" fill="#3F80FD" fill-opacity="0.01"></path></g><path d="M302.036 144.745L268.765 142.419C265.46 142.187 262.593 144.68 262.361 147.985L261.054 166.682C260.823 169.987 263.315 172.854 266.621 173.085L299.891 175.412C303.197 175.643 306.064 173.151 306.295 169.845L307.603 151.149C307.834 147.843 305.341 144.976 302.036 144.745Z" fill="#3F80FD"></path><g filter="url(#filter7_d)"><path d="M296.101 186.589L213.183 180.791C208.225 180.444 203.924 184.183 203.577 189.141L201.899 213.144C201.552 218.103 205.291 222.403 210.249 222.75L293.167 228.548C298.125 228.895 302.426 225.156 302.773 220.198L304.451 196.195C304.798 191.236 301.059 186.936 296.101 186.589Z" fill="#6A35FF" fill-opacity="0.01"></path></g><path d="M295.83 186.589L212.912 180.791C207.954 180.444 203.653 184.183 203.306 189.141L201.628 213.144C201.281 218.103 205.02 222.403 209.978 222.75L292.896 228.548C297.854 228.895 302.155 225.156 302.502 220.198L304.18 196.195C304.527 191.236 300.788 186.936 295.83 186.589Z" fill="#6A35FF"></path><g filter="url(#filter8_d)"><path d="M245.06 243.488C248.396 238.771 255.545 239.271 258.191 244.406L269.95 267.22C272.701 272.556 268.558 278.848 262.569 278.429L235.99 276.571C230.001 276.152 226.774 269.345 230.24 264.443L245.06 243.488Z" fill="#3F80FD" fill-opacity="0.01"></path></g><path d="M245.244 243.255C248.58 238.538 255.729 239.038 258.375 244.173L270.134 266.987C272.885 272.323 268.742 278.615 262.753 278.196L236.174 276.338C230.185 275.919 226.958 269.112 230.424 264.21L245.244 243.255Z" fill="#3F80FD"></path></g></g><defs><filter id="filter0_d" x="-15.9171" y="-10.4971" width="316.091" height="332.472" filterUnits="userSpaceOnUse" color-interpolation-filters="sRGB"><feGaussianBlur stdDeviation="32"></feGaussianBlur></filter><filter id="filter1_d" x="56.9928" y="69.2814" width="58.2799" height="58.2794" filterUnits="userSpaceOnUse" color-interpolation-filters="sRGB"><feGaussianBlur stdDeviation="8.96614"></feGaussianBlur></filter><filter id="filter2_d" x="58.975" y="97.6281" width="58.2799" height="58.2788" filterUnits="userSpaceOnUse" color-interpolation-filters="sRGB"><feGaussianBlur stdDeviation="8.96614"></feGaussianBlur></filter><filter id="filter3_d" x="60.9572" y="125.974" width="58.2802" height="58.2788" filterUnits="userSpaceOnUse" color-interpolation-filters="sRGB"><feGaussianBlur stdDeviation="8.96614"></feGaussianBlur></filter><filter id="filter4_d" x="103.327" y="51.8562" width="296.591" height="328.9" filterUnits="userSpaceOnUse" color-interpolation-filters="sRGB"><feGaussianBlur stdDeviation="32"></feGaussianBlur></filter><filter id="filter5_d" x="192.446" y="131.308" width="58.3981" height="58.3981" filterUnits="userSpaceOnUse" color-interpolation-filters="sRGB"><feGaussianBlur stdDeviation="5.5"></feGaussianBlur></filter><filter id="filter6_d" x="249.039" y="134.379" width="70.5783" height="57.0231" filterUnits="userSpaceOnUse" color-interpolation-filters="sRGB"><feGaussianBlur stdDeviation="6"></feGaussianBlur></filter><filter id="filter7_d" x="191.877" y="179.769" width="122.597" height="67.8018" filterUnits="userSpaceOnUse" color-interpolation-filters="sRGB"><feGaussianBlur stdDeviation="5"></feGaussianBlur></filter><filter id="filter8_d" x="214.816" y="231.233" width="70.0022" height="66.2154" filterUnits="userSpaceOnUse" color-interpolation-filters="sRGB"><feGaussianBlur stdDeviation="7"></feGaussianBlur></filter><clipPath id="clip0"><rect width="384" height="364" fill="white"></rect></clipPath></defs></svg>