<svg xmlns="http://www.w3.org/2000/svg" width="29" height="30" viewBox="0 0 29 30" fill="none"><rect y="0.145508" width="29" height="29" fill="url(#paint0_radial)"></rect><path d="M11.4731 14.7456C11.4731 13.1791 12.7426 11.9089 14.3091 11.9089C15.8755 11.9089 17.1457 13.1791 17.1457 14.7456C17.1457 16.312 15.8755 17.5822 14.3091 17.5822C12.7426 17.5822 11.4731 16.312 11.4731 14.7456V14.7456ZM9.93971 14.7456C9.93971 17.1588 11.8959 19.1149 14.3091 19.1149C16.7223 19.1149 18.6785 17.1588 18.6785 14.7456C18.6785 12.3323 16.7223 10.3762 14.3091 10.3762C11.8959 10.3762 9.93978 12.3322 9.93978 14.7456H9.93971ZM17.8304 10.2029C17.8303 10.4049 17.8901 10.6023 18.0023 10.7703C18.1144 10.9383 18.2738 11.0692 18.4604 11.1466C18.6469 11.2239 18.8522 11.2442 19.0503 11.2049C19.2484 11.1656 19.4304 11.0684 19.5733 10.9257C19.7161 10.7829 19.8135 10.601 19.8529 10.4029C19.8924 10.2049 19.8723 9.99956 19.7951 9.81295C19.7179 9.62633 19.587 9.46681 19.4192 9.35454C19.2513 9.24227 19.0539 9.1823 18.8519 9.18222H18.8515C18.5808 9.18235 18.3212 9.28991 18.1298 9.48129C17.9383 9.67267 17.8307 9.93222 17.8304 10.2029V10.2029ZM10.8714 21.6719C10.0418 21.6342 9.59083 21.496 9.29117 21.3792C8.89389 21.2245 8.61043 21.0403 8.3124 20.7427C8.01438 20.4451 7.8299 20.1619 7.67591 19.7646C7.5591 19.4651 7.42091 19.0141 7.38319 18.1844C7.34194 17.2875 7.33371 17.0181 7.33371 14.7457C7.33371 12.4733 7.34262 12.2046 7.38319 11.3069C7.42098 10.4773 7.56019 10.0272 7.67591 9.72675C7.83058 9.32947 8.01478 9.04601 8.3124 8.74798C8.61002 8.44995 8.89321 8.26547 9.29117 8.11149C9.59069 7.99467 10.0418 7.85649 10.8714 7.81877C11.7683 7.77752 12.0377 7.76928 14.3091 7.76928C16.5804 7.76928 16.8502 7.77806 17.7478 7.81891C18.5775 7.85669 19.0276 7.9959 19.328 8.11163C19.7253 8.26561 20.0088 8.4505 20.3068 8.74812C20.6048 9.04573 20.7886 9.3296 20.9433 9.72688C21.0601 10.0264 21.1983 10.4775 21.236 11.3071C21.2773 12.2048 21.2855 12.4735 21.2855 14.7458C21.2855 17.0182 21.2773 17.2869 21.236 18.1846C21.1982 19.0142 21.0594 19.4651 20.9433 19.7648C20.7886 20.1621 20.6044 20.4455 20.3068 20.7429C20.0092 21.0402 19.7253 21.2247 19.328 21.3793C19.0285 21.4962 18.5775 21.6344 17.7478 21.6721C16.8509 21.7133 16.5815 21.7216 14.3091 21.7216C12.0367 21.7216 11.768 21.7133 10.8714 21.6721V21.6719ZM10.8009 6.28786C9.89505 6.32911 9.27606 6.47275 8.73548 6.6831C8.17598 6.90032 7.70171 7.19174 7.22812 7.66459C6.75453 8.13743 6.46386 8.61176 6.24663 9.17194C6.03629 9.71286 5.89265 10.3315 5.8514 11.2374C5.80946 12.1447 5.79987 12.4347 5.79987 14.7456C5.79987 17.0564 5.80946 17.3465 5.8514 18.2537C5.89265 19.1597 6.03629 19.7783 6.24663 20.3192C6.46386 20.8787 6.7546 21.3539 7.22812 21.8265C7.70164 22.2992 8.1753 22.5902 8.73548 22.808C9.27708 23.0184 9.89505 23.162 10.8009 23.2033C11.7087 23.2445 11.9983 23.2548 14.3091 23.2548C16.6199 23.2548 16.91 23.2452 17.8173 23.2033C18.7232 23.162 19.3418 23.0184 19.8827 22.808C20.4422 22.5902 20.9165 22.2994 21.3901 21.8265C21.8637 21.3537 22.1537 20.8787 22.3716 20.3192C22.5819 19.7783 22.7262 19.1596 22.7668 18.2537C22.808 17.3458 22.8176 17.0564 22.8176 14.7456C22.8176 12.4347 22.808 12.1447 22.7668 11.2374C22.7255 10.3314 22.5819 9.71252 22.3716 9.17194C22.1537 8.61245 21.8629 8.13817 21.3901 7.66459C20.9172 7.191 20.4422 6.90032 19.8834 6.6831C19.3418 6.47275 18.7231 6.32843 17.818 6.28786C16.9105 6.2464 16.6206 6.23633 14.3101 6.23633C11.9996 6.23633 11.709 6.24593 10.8013 6.28786" fill="white"></path><defs><radialGradient id="paint0_radial" cx="0" cy="0" r="1" gradientUnits="userSpaceOnUse" gradientTransform="translate(1.87685 28.5102) scale(36.8192)"><stop offset="0.09" stop-color="#FA8F21"></stop><stop offset="0.78" stop-color="#EB2482"></stop></radialGradient></defs></svg>