<svg xmlns="http://www.w3.org/2000/svg" width="29" height="29" viewBox="0 0 29 29" fill="none"><rect width="29" height="29" fill="#009EFF"></rect><path d="M16.9395 8.41292V8.41016H17.6602L17.9235 8.46275C18.0991 8.49689 18.2585 8.54164 18.4017 8.597C18.5449 8.65236 18.6835 8.71695 18.8174 8.79076C18.9514 8.86457 19.0729 8.93978 19.182 9.01636C19.2901 9.09202 19.3871 9.17229 19.473 9.25718C19.558 9.34298 19.6906 9.36513 19.8708 9.32361C20.0509 9.28209 20.245 9.22442 20.4528 9.15061C20.6607 9.0768 20.8663 8.99376 21.0696 8.90148C21.2729 8.80921 21.3967 8.75062 21.441 8.72571C21.4844 8.69989 21.5076 8.68605 21.5103 8.68419L21.5131 8.68004L21.5269 8.67312L21.5408 8.6662L21.5547 8.65928L21.5685 8.65236L21.5713 8.64821L21.5754 8.64544L21.5796 8.64267L21.5824 8.63852L21.5962 8.63437L21.6101 8.6316L21.6073 8.65236L21.6032 8.67312L21.5962 8.69388L21.5893 8.71464L21.5824 8.72848L21.5754 8.74232L21.5685 8.76308C21.5639 8.77692 21.5593 8.79537 21.5547 8.81844C21.55 8.84151 21.5062 8.93377 21.423 9.09525C21.3398 9.25672 21.2359 9.42049 21.1112 9.58657C20.9864 9.75265 20.8746 9.87813 20.7758 9.96302C20.676 10.0488 20.6099 10.1088 20.5776 10.1429C20.5452 10.178 20.506 10.2103 20.4598 10.2398L20.3905 10.2855L20.3766 10.2924L20.3628 10.2993L20.36 10.3035L20.3558 10.3063L20.3517 10.309L20.3489 10.3132L20.335 10.3201L20.3212 10.327L20.3184 10.3312L20.3143 10.3339L20.3101 10.3367L20.3073 10.3409L20.3046 10.345L20.3004 10.3478L20.2962 10.3505L20.2935 10.3547H20.3628L20.7508 10.2717C21.0095 10.2163 21.2567 10.1494 21.4923 10.071L21.8665 9.94642L21.9081 9.93258L21.9289 9.92566L21.9427 9.91874L21.9566 9.91182L21.9704 9.9049L21.9843 9.89798L22.012 9.89382L22.0397 9.89106V9.91874L22.0328 9.9215L22.0259 9.92566L22.0231 9.92981L22.0189 9.93258L22.0148 9.93534L22.012 9.9395L22.0093 9.94365L22.0051 9.94642L22.0009 9.94918L21.9982 9.95334L21.9954 9.95749L21.9912 9.96026L21.9843 9.9741L21.9774 9.98794L21.9732 9.9907C21.9714 9.99347 21.9127 10.0719 21.7972 10.226C21.6817 10.381 21.6193 10.4594 21.6101 10.4613C21.6009 10.464 21.5879 10.4779 21.5713 10.5028C21.5556 10.5286 21.4576 10.6315 21.2775 10.8114C21.0973 10.9913 20.9208 11.1514 20.7481 11.2917C20.5744 11.4329 20.4866 11.6063 20.4847 11.8121C20.482 12.0169 20.4713 12.2485 20.4528 12.5068C20.4344 12.7652 20.3997 13.0443 20.3489 13.3442C20.2981 13.6441 20.2195 13.9831 20.1133 14.3614C20.007 14.7397 19.8777 15.1088 19.7252 15.4686C19.5728 15.8285 19.4134 16.1514 19.2471 16.4375C19.0808 16.7235 18.9283 16.9657 18.7897 17.1641C18.6511 17.3624 18.5102 17.5493 18.367 17.7246C18.2238 17.8999 18.0427 18.0974 17.8237 18.317C17.6038 18.5356 17.4837 18.6556 17.4634 18.6768C17.4422 18.6971 17.3516 18.7728 17.1917 18.9038C17.0328 19.0357 16.8619 19.1677 16.6789 19.2996C16.4969 19.4306 16.3297 19.54 16.1772 19.6276C16.0248 19.7153 15.8409 19.8154 15.6256 19.928C15.4113 20.0414 15.1794 20.1466 14.9299 20.2435C14.6804 20.3404 14.4171 20.4304 14.1399 20.5134C13.8627 20.5964 13.5948 20.661 13.3361 20.7072C13.0774 20.7533 12.784 20.7925 12.456 20.8248L11.964 20.8732V20.8802H11.0631V20.8732L10.9453 20.8663C10.8668 20.8617 10.8021 20.8571 10.7513 20.8525C10.7005 20.8479 10.5088 20.8225 10.1761 20.7764C9.84353 20.7302 9.58251 20.6841 9.3931 20.638C9.2037 20.5918 8.92188 20.5042 8.54768 20.375C8.17348 20.2458 7.85333 20.1153 7.58723 19.9833C7.32206 19.8523 7.15574 19.7692 7.08829 19.7342C7.02177 19.7 6.94693 19.6576 6.86377 19.6069L6.73904 19.5307L6.73628 19.5266L6.73211 19.5238L6.72795 19.5211L6.72518 19.5169L6.71132 19.51L6.69746 19.5031L6.6947 19.4989L6.69053 19.4961L6.68637 19.4934L6.6836 19.4892L6.68084 19.4851L6.67667 19.4823H6.66974V19.4546L6.6836 19.4574L6.69746 19.4615L6.75982 19.4685C6.8014 19.4731 6.91459 19.48 7.09938 19.4892C7.28418 19.4985 7.48051 19.4985 7.6884 19.4892C7.89629 19.48 8.10881 19.4592 8.32593 19.4269C8.54306 19.3946 8.79946 19.3393 9.09512 19.2609C9.3908 19.1824 9.66244 19.0892 9.91006 18.9813C10.1568 18.8724 10.3323 18.7912 10.4367 18.7377C10.5402 18.6851 10.6982 18.5873 10.9107 18.4443L11.2295 18.2298L11.2322 18.2256L11.2364 18.2228L11.2406 18.2201L11.2433 18.2159L11.2461 18.2118L11.2502 18.209L11.2544 18.2062L11.2572 18.2021L11.271 18.1979L11.2849 18.1952L11.2877 18.1813L11.2918 18.1675L11.296 18.1647L11.2988 18.1606L11.1879 18.1536C11.114 18.149 11.0424 18.1444 10.9731 18.1398C10.9038 18.1352 10.7952 18.1144 10.6474 18.0775C10.4995 18.0406 10.3402 17.9852 10.1692 17.9114C9.99829 17.8376 9.83198 17.75 9.67028 17.6485C9.5086 17.547 9.39171 17.4625 9.31964 17.3952C9.2485 17.3288 9.1561 17.2347 9.04246 17.1129C8.92974 16.9902 8.83179 16.8642 8.74864 16.735C8.66548 16.6059 8.58603 16.4568 8.51027 16.288L8.39523 16.0361L8.3883 16.0153L8.38137 15.9946L8.37721 15.9807L8.37444 15.9669L8.39523 15.9697L8.41601 15.9738L8.56847 15.9946C8.67011 16.0084 8.82949 16.013 9.04661 16.0084C9.26375 16.0038 9.41389 15.9946 9.49704 15.9807C9.5802 15.9669 9.63102 15.9577 9.6495 15.9531L9.67721 15.9461L9.71186 15.9392L9.74651 15.9323L9.74928 15.9281L9.75344 15.9254L9.75761 15.9226L9.76037 15.9185L9.73265 15.9115L9.70493 15.9046L9.67721 15.8977L9.6495 15.8908L9.62178 15.8839C9.6033 15.8792 9.57097 15.87 9.52476 15.8562C9.47857 15.8423 9.35383 15.7916 9.15056 15.7039C8.9473 15.6163 8.7856 15.5309 8.66548 15.4479C8.54507 15.3646 8.43025 15.2735 8.32177 15.1752C8.21367 15.0756 8.09495 14.9473 7.96559 14.7905C7.83624 14.6336 7.72075 14.4514 7.6191 14.2438C7.51747 14.0362 7.44125 13.8378 7.39042 13.6487C7.33981 13.4606 7.30641 13.2684 7.29065 13.0743L7.26569 12.7837L7.27955 12.7864L7.29341 12.7906L7.30727 12.7975L7.32113 12.8044L7.33499 12.8113L7.34885 12.8183L7.56367 12.9151C7.70689 12.9797 7.88474 13.0351 8.09725 13.0812C8.30977 13.1273 8.4368 13.1527 8.47838 13.1573L8.54075 13.1643H8.66548L8.66272 13.1601L8.65855 13.1573L8.6544 13.1546L8.65162 13.1504L8.64887 13.1463L8.64469 13.1435L8.64054 13.1407L8.63776 13.1366L8.6239 13.1297L8.61005 13.1227L8.60729 13.1186L8.60312 13.1158L8.59896 13.113L8.59619 13.1089L8.58233 13.102L8.56847 13.0951L8.56571 13.0909C8.56294 13.0891 8.5232 13.0595 8.44651 13.0023C8.37074 12.9442 8.29128 12.869 8.20812 12.7767C8.12497 12.6845 8.04181 12.5876 7.95866 12.4861C7.87535 12.3844 7.80115 12.2755 7.73691 12.1608C7.67224 12.0455 7.60386 11.8988 7.53179 11.7207C7.46065 11.5436 7.4066 11.365 7.36964 11.1851C7.33269 11.0052 7.3119 10.8276 7.30727 10.6523C7.30265 10.477 7.30727 10.327 7.32113 10.2025C7.33499 10.0779 7.36271 9.93718 7.40428 9.78033C7.44586 9.62348 7.50593 9.4574 7.58445 9.28209L7.70226 9.01912L7.70919 8.99836L7.71612 8.9776L7.72029 8.97484L7.72305 8.97068L7.72582 8.96653L7.72998 8.96376L7.73415 8.96653L7.73691 8.97068L7.73968 8.97484L7.74384 8.9776L7.74801 8.98037L7.75077 8.98452L7.75354 8.98868L7.7577 8.99144L7.76463 9.00528L7.77156 9.01912L7.77573 9.02189L7.77849 9.02604L7.96559 9.23365C8.09032 9.37205 8.23816 9.5266 8.40908 9.69729C8.58003 9.86798 8.67473 9.95656 8.6932 9.96302C8.71169 9.9704 8.73478 9.99162 8.7625 10.0267C8.79022 10.0608 8.88262 10.1425 9.03968 10.2717C9.19677 10.4008 9.40234 10.5508 9.65642 10.7215C9.91052 10.8922 10.1923 11.0606 10.5018 11.2266C10.8114 11.3927 11.144 11.5426 11.4997 11.6764C11.8554 11.8102 12.1049 11.8979 12.2481 11.9394C12.3913 11.9809 12.6362 12.034 12.9827 12.0986C13.3291 12.1632 13.5902 12.2047 13.7657 12.2231C13.9413 12.2416 14.0614 12.2522 14.1261 12.255L14.2231 12.2577L14.2203 12.237L14.2161 12.2162L14.1884 12.0432C14.17 11.9279 14.1607 11.7664 14.1607 11.5588C14.1607 11.3512 14.1769 11.1597 14.2092 10.9844C14.2416 10.8091 14.2901 10.6315 14.3547 10.4516C14.4194 10.2717 14.4827 10.1273 14.5446 10.0184C14.6074 9.91043 14.6897 9.78725 14.7913 9.64885C14.893 9.51045 15.0246 9.36744 15.1863 9.21981C15.348 9.07217 15.5328 8.94069 15.7407 8.82536C15.9486 8.71003 16.1403 8.62237 16.3158 8.5624C16.4914 8.50243 16.6392 8.46321 16.7593 8.44476C16.8795 8.42631 16.9395 8.41569 16.9395 8.41292V8.41292Z" fill="white"></path></svg>