<svg xmlns="http://www.w3.org/2000/svg" width="29" height="30" viewBox="0 0 29 30" fill="none"><rect y="0.245117" width="29" height="29" fill="#FF0000"></rect><path d="M14.8726 20.8178L11.4218 20.7533C10.3045 20.7308 9.18442 20.7757 8.08903 20.5428C6.42269 20.195 6.30464 18.4893 6.18111 17.0585C6.01091 15.047 6.0768 12.9991 6.398 11.0044C6.57933 9.88516 7.29293 9.21731 8.3965 9.14464C12.1218 8.88089 15.8719 8.91215 19.589 9.03519C19.9816 9.04647 20.3768 9.10813 20.7639 9.17831C22.6747 9.52058 22.7213 11.4535 22.8452 13.0807C22.9687 14.7247 22.9166 16.3771 22.6805 18.0098C22.491 19.3617 22.1286 20.4954 20.5992 20.6048C18.683 20.7479 16.8107 20.8632 14.889 20.8265C14.8891 20.8178 14.8781 20.8178 14.8726 20.8178ZM12.8439 17.3952C14.2879 16.5479 15.7044 15.7147 17.1402 14.8731C15.6935 14.0258 14.2797 13.1926 12.8439 12.351V17.3952Z" fill="white"></path></svg>