<svg xmlns="http://www.w3.org/2000/svg" width="224" height="52" viewBox="0 0 224 52" fill="none"><g filter="url(#filter0_d_1917_39214)"><rect x="9.9165" y="7.49366" width="33.3388" height="33.3388" rx="8" fill="white" fill-opacity="0.01"></rect></g><rect x="11.792" y="10.2159" width="29.5881" height="27.3121" fill="white"></rect><path fill-rule="evenodd" clip-rule="evenodd" d="M18.3024 5.91599H35.3433C41.5492 5.91599 45.0526 9.43585 45.0709 15.6417V32.6845C45.0709 38.8885 41.5492 42.4102 35.3433 42.4102H18.3024C12.0965 42.4102 8.57666 38.8885 8.57666 32.6845V15.6417C8.57666 9.43585 12.0965 5.91599 18.3024 5.91599ZM26.9134 34.8559C27.6998 34.8559 28.3549 34.272 28.4279 33.4873V14.8935C28.5009 14.3279 28.229 13.7604 27.7363 13.452C27.2236 13.1418 26.6032 13.1418 26.1123 13.452C25.6178 13.7604 25.3459 14.3279 25.3989 14.8935V33.4873C25.4919 34.272 26.147 34.8559 26.9134 34.8559ZM35.3087 34.8559C36.0751 34.8559 36.7302 34.272 36.8232 33.4874V27.5023C36.8761 26.9166 36.6043 26.371 36.1098 26.0608C35.6189 25.7506 34.9985 25.7506 34.4876 26.0608C33.9931 26.371 33.7212 26.9166 33.7942 27.5023V33.4874C33.8672 34.272 34.5223 34.8559 35.3087 34.8559ZM19.9244 33.4874C19.8514 34.272 19.1963 34.8559 18.4099 34.8559C17.6252 34.8559 16.9683 34.272 16.8972 33.4874V20.8786C16.8424 20.3111 17.1143 19.7473 17.6088 19.4371C18.0997 19.1269 18.7219 19.1269 19.2146 19.4371C19.7054 19.7473 19.9809 20.3111 19.9244 20.8786V33.4874Z" fill="#FF3951"></path><rect x="16.1841" y="19.192" width="4.62603" height="16.0086" rx="2.31301" fill="white"></rect><rect x="24.5107" y="13.1256" width="4.62603" height="22.075" rx="2.31301" fill="white"></rect><rect x="32.8374" y="24.1911" width="4.62603" height="11.0094" rx="2.31301" fill="white"></rect><path d="M69.6543 11.9514H65.2413L58.0425 32.4996H61.7384L63.2554 27.9762H71.6402L73.1847 32.4996H76.8807L69.6543 11.9514ZM64.2759 24.9147L67.4478 15.5921L70.6197 24.9147H64.2759Z" fill="#14142B"></path><path d="M89.04 17.6332V19.426C87.9919 18.1021 86.337 17.3022 84.296 17.3022C80.3794 17.3022 77.0145 20.1707 77.0145 24.501C77.0145 28.7485 80.3243 31.7549 84.3512 31.7549C86.1991 31.7549 87.7989 31.1205 88.8745 29.9345V31.7825C88.8745 34.1269 87.0266 35.5612 84.7097 35.5612C82.6963 35.5612 81.3448 34.4579 80.8207 32.9409L77.9523 34.3752C78.89 36.8851 81.4827 38.5951 84.7373 38.5951C88.8745 38.5951 92.1843 35.837 92.1843 31.7825V17.6332H89.04ZM84.6821 28.6934C82.2274 28.6934 80.4622 26.9833 80.4622 24.5286C80.4622 22.0462 82.3101 20.3637 84.6546 20.3637C87.0542 20.3637 88.8745 22.0738 88.8745 24.5286C88.8745 26.9557 87.1369 28.6934 84.6821 28.6934Z" fill="#14142B"></path><path d="M108.627 24.5286C108.627 20.5844 105.648 17.3022 101.456 17.3022C97.2632 17.3022 94.0913 20.5844 94.0913 25.0526C94.0913 29.4105 97.208 32.8306 101.704 32.8306C104.738 32.8306 107.165 31.286 108.075 29.1623L105.345 27.8383C104.683 29.0519 103.497 29.907 101.731 29.907C99.4422 29.907 97.7045 28.39 97.539 26.018H108.461C108.572 25.5767 108.627 25.0526 108.627 24.5286ZM97.5942 23.4529C97.9803 21.2739 99.5249 20.0603 101.456 20.0603C103.359 20.0603 104.958 21.467 105.069 23.4529H97.5942Z" fill="#14142B"></path><path d="M117.635 17.3022C115.787 17.3022 114.243 18.0469 113.415 19.426V17.6332H110.299V32.4996H113.609V23.6735C113.609 21.6601 114.877 20.3637 116.78 20.3637C118.656 20.3637 119.925 21.6601 119.925 23.6735V32.4996H123.234V22.8461C123.234 19.5915 120.945 17.3022 117.635 17.3022Z" fill="#14142B"></path><path d="M132.545 32.8306C135.717 32.8306 138.31 31.0102 139.192 28.583L136.324 27.1212C135.745 28.7485 134.366 29.769 132.545 29.769C130.118 29.769 128.353 27.7832 128.353 25.0802C128.353 22.322 130.118 20.3637 132.545 20.3637C134.338 20.3637 135.745 21.4118 136.324 23.0116L139.192 21.5773C138.282 19.0674 135.689 17.3022 132.545 17.3022C128.16 17.3022 124.905 20.612 124.905 25.0526C124.905 29.4932 128.187 32.8306 132.545 32.8306Z" fill="#14142B"></path><path d="M151.103 17.6332L147.103 28.1417L143.104 17.6332H139.491L145.338 32.4445L144.842 33.6029C144.456 34.5131 143.959 35.6163 142.056 35.6163C141.477 35.6163 140.76 35.506 140.346 35.3957V38.1814C140.953 38.4572 141.725 38.5676 142.525 38.5676C146.276 38.5676 147.434 35.8646 148.096 34.2373L154.716 17.6332H151.103Z" fill="#14142B"></path><path d="M164.142 17.3022C162.045 17.3022 160.253 18.1296 159.232 19.5087V17.6332H156.115V38.0159H159.425V30.9826C160.473 32.1411 162.156 32.8306 164.114 32.8306C168.362 32.8306 171.671 29.4656 171.671 25.0526C171.671 20.6396 168.334 17.3022 164.142 17.3022ZM163.811 29.769C161.245 29.769 159.425 27.8108 159.425 25.0802C159.425 22.322 161.245 20.3637 163.811 20.3637C166.348 20.3637 168.224 22.3496 168.224 25.0802C168.224 27.7832 166.348 29.769 163.811 29.769Z" fill="#14142B"></path><path d="M180.74 17.4677C178.919 17.4677 177.485 18.0745 176.713 19.7018V17.6332H173.596V32.4996H176.906V24.0872C176.906 21.7704 178.285 20.4465 180.326 20.4465H182.119V17.4677H180.74Z" fill="#14142B"></path><path d="M190.729 32.8306C195.059 32.8306 198.534 29.5484 198.534 25.0526C198.534 20.5568 195.087 17.3022 190.729 17.3022C186.343 17.3022 182.923 20.5568 182.923 25.0526C182.923 29.5484 186.371 32.8306 190.729 32.8306ZM190.729 29.769C188.191 29.769 186.371 27.8108 186.371 25.0802C186.371 22.3496 188.191 20.3637 190.729 20.3637C193.239 20.3637 195.087 22.3496 195.087 25.0802C195.087 27.8108 193.239 29.769 190.729 29.769Z" fill="#14142B"></path><path d="M220.865 32.4996L214.328 22.129L220.782 11.9514H216.866L212.398 19.0398L207.902 11.9514H203.985L210.439 22.129L203.902 32.4996H207.791L212.398 25.2181L216.976 32.4996H220.865Z" fill="#14142B"></path><defs><filter id="filter0_d_1917_39214" x="0.916504" y="0.49366" width="51.3389" height="51.3388" filterUnits="userSpaceOnUse" color-interpolation-filters="sRGB"><feGaussianBlur stdDeviation="4.5"></feGaussianBlur></filter></defs></svg>