<svg xmlns="http://www.w3.org/2000/svg" width="191" height="54" viewBox="0 0 191 54" fill="none"><g clip-path="url(#clip0)"><path d="M58.5233 29.4348C56.8978 29.4348 55.4647 29.0819 54.2242 28.3761C52.9837 27.6703 51.9998 26.6864 51.2726 25.4245C50.5667 24.1626 50.2139 22.7188 50.2139 21.0933C50.2139 19.4678 50.5667 18.0241 51.2726 16.7622C51.9998 15.5002 52.9837 14.5164 54.2242 13.8105C55.4647 13.1047 56.8978 12.7518 58.5233 12.7518C60.5553 12.7518 62.2664 13.2865 63.6566 14.3559C65.0468 15.404 65.9344 16.8584 66.3194 18.7192H61.9882C61.7744 17.9492 61.3467 17.3503 60.705 16.9226C60.0847 16.4734 59.3468 16.2489 58.4912 16.2489C57.3577 16.2489 56.3951 16.6766 55.6037 17.5321C54.8123 18.3877 54.4167 19.5748 54.4167 21.0933C54.4167 22.612 54.8123 23.7991 55.6037 24.6545C56.3951 25.5101 57.3577 25.9379 58.4912 25.9379C59.3468 25.9379 60.0847 25.7239 60.705 25.2962C61.3467 24.8685 61.7744 24.2589 61.9882 23.4674H66.3194C65.9344 25.2641 65.0468 26.7079 63.6566 27.7987C62.2664 28.8895 60.5553 29.4348 58.5233 29.4348Z" fill="#14142B"></path><path d="M76.9583 29.4348C75.4184 29.4348 74.0281 29.0819 72.7875 28.3761C71.5684 27.6703 70.5953 26.6971 69.868 25.4566C69.1622 24.1947 68.8093 22.7403 68.8093 21.0933C68.8093 19.4465 69.1729 18.0027 69.9001 16.7622C70.6274 15.5002 71.6005 14.5164 72.8197 13.8105C74.0602 13.1047 75.4503 12.7518 76.9904 12.7518C78.5089 12.7518 79.8779 13.1047 81.097 13.8105C82.3375 14.5164 83.3107 15.5002 84.0165 16.7622C84.7437 18.0027 85.1073 19.4465 85.1073 21.0933C85.1073 22.7403 84.7437 24.1947 84.0165 25.4566C83.3107 26.6971 82.3375 27.6703 81.097 28.3761C79.8565 29.0819 78.4768 29.4348 76.9583 29.4348ZM76.9583 25.8736C78.0277 25.8736 78.9582 25.478 79.7495 24.6866C80.5409 23.8738 80.9366 22.676 80.9366 21.0933C80.9366 19.5106 80.5409 18.3235 79.7495 17.5321C78.9582 16.7194 78.0384 16.313 76.9904 16.313C75.8996 16.313 74.9585 16.7194 74.1672 17.5321C73.3971 18.3235 73.0122 19.5106 73.0122 21.0933C73.0122 22.676 73.3971 23.8738 74.1672 24.6866C74.9585 25.478 75.8889 25.8736 76.9583 25.8736Z" fill="#14142B"></path><path d="M88.1372 29.0499V13.1368H91.7628L92.1157 15.2863C92.6286 14.5164 93.3026 13.9068 94.1366 13.4577C94.9922 12.9871 95.9761 12.7518 97.0887 12.7518C99.5476 12.7518 101.292 13.7036 102.317 15.6072C102.896 14.7302 103.666 14.0351 104.628 13.5218C105.612 13.0084 106.68 12.7518 107.836 12.7518C109.911 12.7518 111.504 13.3721 112.616 14.6126C113.729 15.8532 114.285 17.6712 114.285 20.0667V29.0499H110.178V20.4516C110.178 19.0828 109.911 18.0347 109.375 17.3076C108.862 16.5803 108.061 16.2167 106.971 16.2167C105.857 16.2167 104.959 16.6232 104.275 17.4359C103.612 18.2487 103.28 19.3822 103.28 20.8367V29.0499H99.1743V20.4516C99.1743 19.0828 98.9071 18.0347 98.3717 17.3076C97.8373 16.5803 97.0135 16.2167 95.9017 16.2167C94.8106 16.2167 93.9226 16.6232 93.2384 17.4359C92.5755 18.2487 92.2442 19.3822 92.2442 20.8367V29.0499H88.1372Z" fill="#14142B"></path><path d="M117.542 36.1081V13.1368H121.2L121.649 15.4146C122.163 14.7089 122.835 14.0886 123.67 13.5538C124.525 13.0191 125.628 12.7518 126.974 12.7518C128.473 12.7518 129.81 13.1154 130.985 13.8427C132.161 14.5698 133.091 15.5644 133.776 16.8263C134.461 18.0883 134.803 19.5213 134.803 21.1254C134.803 22.7296 134.461 24.1626 133.776 25.4245C133.091 26.6651 132.161 27.649 130.985 28.3761C129.81 29.0819 128.473 29.4348 126.974 29.4348C125.777 29.4348 124.729 29.2103 123.831 28.7611C122.933 28.312 122.205 27.681 121.649 26.8682V36.1081H117.542ZM126.109 25.8416C127.412 25.8416 128.493 25.4032 129.349 24.5262C130.205 23.6492 130.632 22.5157 130.632 21.1254C130.632 19.7351 130.205 18.5908 129.349 17.6926C128.493 16.7943 127.412 16.345 126.109 16.345C124.782 16.345 123.691 16.7943 122.835 17.6926C122.002 18.5694 121.584 19.7031 121.584 21.0933C121.584 22.4837 122.002 23.6279 122.835 24.5262C123.691 25.4032 124.782 25.8416 126.109 25.8416Z" fill="#14142B"></path><path d="M143.316 29.4348C141.947 29.4348 140.823 29.221 139.946 28.7932C139.069 28.3441 138.418 27.7558 137.99 27.0286C137.562 26.3014 137.348 25.4994 137.348 24.6224C137.348 23.1467 137.925 21.949 139.081 21.0292C140.236 20.1095 141.969 19.6495 144.278 19.6495H148.321V19.2646C148.321 18.1738 148.01 17.3717 147.39 16.8584C146.77 16.345 146 16.0884 145.081 16.0884C144.246 16.0884 143.518 16.2916 142.899 16.698C142.279 17.083 141.893 17.6605 141.743 18.4305H137.733C137.84 17.2754 138.225 16.2702 138.888 15.4146C139.572 14.5591 140.45 13.9068 141.518 13.4577C142.588 12.9871 143.786 12.7518 145.112 12.7518C147.38 12.7518 149.165 13.3186 150.47 14.4522C151.775 15.5858 152.428 17.19 152.428 19.2646V29.0499H148.93L148.545 26.4833C148.074 27.3388 147.411 28.0447 146.556 28.6008C145.721 29.1569 144.642 29.4348 143.316 29.4348ZM144.246 26.2266C145.422 26.2266 146.332 25.8416 146.973 25.0715C147.636 24.3016 148.053 23.3498 148.224 22.2163H144.728C143.637 22.2163 142.855 22.4194 142.386 22.8258C141.915 23.2108 141.68 23.6921 141.68 24.2695C141.68 24.8898 141.915 25.371 142.386 25.7132C142.855 26.0555 143.476 26.2266 144.246 26.2266Z" fill="#14142B"></path><path d="M155.705 29.0499V13.1368H159.33L159.651 15.8318C160.142 14.8906 160.849 14.1421 161.768 13.586C162.71 13.0298 163.811 12.7518 165.072 12.7518C167.04 12.7518 168.57 13.3721 169.661 14.6126C170.752 15.8532 171.296 17.6712 171.296 20.0667V29.0499H167.191V20.4516C167.191 19.0828 166.912 18.0347 166.356 17.3076C165.801 16.5803 164.933 16.2167 163.757 16.2167C162.603 16.2167 161.651 16.6232 160.902 17.4359C160.175 18.2487 159.811 19.3822 159.811 20.8367V29.0499H155.705Z" fill="#14142B"></path><path d="M176.038 36.1082L179.728 27.9912H178.765L172.574 13.1368H177.033L181.493 24.3338L186.145 13.1368H190.508L180.402 36.1082H176.038Z" fill="#14142B"></path><g filter="url(#filter0_d)"><path d="M14.5397 4.71851H10.1012C6.90468 4.71851 4.31335 7.30983 4.31335 10.5064V14.9448C4.31335 18.1414 6.90468 20.7327 10.1012 20.7327H14.5397C17.7362 20.7327 20.3275 18.1414 20.3275 14.9448V10.5064C20.3275 7.30983 17.7362 4.71851 14.5397 4.71851Z" fill="#FFC226" fill-opacity="0.01"></path></g><path d="M14.5397 4.71851H10.1012C6.90468 4.71851 4.31335 7.30983 4.31335 10.5064V14.9448C4.31335 18.1414 6.90468 20.7327 10.1012 20.7327H14.5397C17.7362 20.7327 20.3275 18.1414 20.3275 14.9448V10.5064C20.3275 7.30983 17.7362 4.71851 14.5397 4.71851Z" fill="#FFC226"></path><g filter="url(#filter1_d)"><path d="M32.8908 4.71851H28.4524C25.2558 4.71851 22.6645 7.30983 22.6645 10.5064V14.9448C22.6645 18.1414 25.2558 20.7327 28.4524 20.7327H32.8908C36.0874 20.7327 38.6787 18.1414 38.6787 14.9448V10.5064C38.6787 7.30983 36.0874 4.71851 32.8908 4.71851Z" fill="#FF3951" fill-opacity="0.01"></path></g><path d="M32.8908 4.71851H28.4524C25.2558 4.71851 22.6645 7.30983 22.6645 10.5064V14.9448C22.6645 18.1414 25.2558 20.7327 28.4524 20.7327H32.8908C36.0874 20.7327 38.6787 18.1414 38.6787 14.9448V10.5064C38.6787 7.30983 36.0874 4.71851 32.8908 4.71851Z" fill="#FF3951"></path><g filter="url(#filter2_d)"><path d="M32.8908 23.0698H28.4524C25.2558 23.0698 22.6645 25.6611 22.6645 28.8577V33.2961C22.6645 36.4927 25.2558 39.084 28.4524 39.084H32.8908C36.0874 39.084 38.6787 36.4927 38.6787 33.2961V28.8577C38.6787 25.6611 36.0874 23.0698 32.8908 23.0698Z" fill="#6A35FF" fill-opacity="0.01"></path></g><path d="M32.8908 23.0698H28.4524C25.2558 23.0698 22.6645 25.6611 22.6645 28.8577V33.2961C22.6645 36.4927 25.2558 39.084 28.4524 39.084H32.8908C36.0874 39.084 38.6787 36.4927 38.6787 33.2961V28.8577C38.6787 25.6611 36.0874 23.0698 32.8908 23.0698Z" fill="#6A35FF"></path><g filter="url(#filter3_d)"><path d="M14.5397 23.0698H10.1012C6.90468 23.0698 4.31335 25.6611 4.31335 28.8577V33.2961C4.31335 36.4927 6.90468 39.084 10.1012 39.084H14.5397C17.7362 39.084 20.3275 36.4927 20.3275 33.2961V28.8577C20.3275 25.6611 17.7362 23.0698 14.5397 23.0698Z" fill="#1B76FF" fill-opacity="0.01"></path></g><path d="M14.5397 23.0698H10.1012C6.90468 23.0698 4.31335 25.6611 4.31335 28.8577V33.2961C4.31335 36.4927 6.90468 39.084 10.1012 39.084H14.5397C17.7362 39.084 20.3275 36.4927 20.3275 33.2961V28.8577C20.3275 25.6611 17.7362 23.0698 14.5397 23.0698Z" fill="#1B76FF"></path></g><defs><filter id="filter0_d" x="1.31335" y="4.48325" width="22.0142" height="22.0142" filterUnits="userSpaceOnUse" color-interpolation-filters="sRGB"><feGaussianBlur stdDeviation="1.5"></feGaussianBlur></filter><filter id="filter1_d" x="12.6645" y="0.718506" width="36.0142" height="36.0142" filterUnits="userSpaceOnUse" color-interpolation-filters="sRGB"><feGaussianBlur stdDeviation="5"></feGaussianBlur></filter><filter id="filter2_d" x="13.6645" y="19.0698" width="34.0142" height="34.0142" filterUnits="userSpaceOnUse" color-interpolation-filters="sRGB"><feGaussianBlur stdDeviation="4.5"></feGaussianBlur></filter><filter id="filter3_d" x="0.627034" y="22.1482" width="23.3868" height="23.3868" filterUnits="userSpaceOnUse" color-interpolation-filters="sRGB"><feGaussianBlur stdDeviation="1.84316"></feGaussianBlur></filter><clipPath id="clip0"><rect width="191" height="53.0556" fill="white"></rect></clipPath></defs></svg>