<svg xmlns="http://www.w3.org/2000/svg" width="191" height="56" viewBox="0 0 191 56" fill="none"><path d="M48.4421 18.7891C48.4421 16.8463 48.8759 15.1112 49.7436 13.5835C50.63 12.0369 51.8276 10.8392 53.3365 9.99047C54.8642 9.12288 56.5711 8.68909 58.4572 8.68909C60.6639 8.68909 62.5971 9.2549 64.2569 10.3866C65.9166 11.5182 67.0765 13.0837 67.7366 15.0829H63.1818C62.7291 14.1399 62.0878 13.4326 61.258 12.9611C60.447 12.4896 59.5039 12.2538 58.4289 12.2538C57.2784 12.2538 56.2505 12.5273 55.3452 13.0742C54.4587 13.6023 53.7609 14.3568 53.2516 15.3375C52.7612 16.3183 52.5161 17.4687 52.5161 18.7891C52.5161 20.0904 52.7612 21.2409 53.2516 22.2405C53.7609 23.2213 54.4587 23.9852 55.3452 24.5321C56.2505 25.0602 57.2784 25.3243 58.4289 25.3243C59.5039 25.3243 60.447 25.0885 61.258 24.617C62.0878 24.1266 62.7291 23.4099 63.1818 22.4669H67.7366C67.0765 24.4849 65.9166 26.0599 64.2569 27.1915C62.6159 28.3043 60.6828 28.8607 58.4572 28.8607C56.5711 28.8607 54.8642 28.4362 53.3365 27.5875C51.8276 26.72 50.63 25.5223 49.7436 23.9946C48.8759 22.4669 48.4421 20.7317 48.4421 18.7891Z" fill="#14142B"></path><path d="M78.0791 28.9455C76.5703 28.9455 75.2123 28.6154 74.0053 27.9552C72.7981 27.2763 71.8457 26.3238 71.1478 25.0979C70.4689 23.8719 70.1294 22.4573 70.1294 20.8542C70.1294 19.251 70.4783 17.8365 71.1761 16.6106C71.8928 15.3846 72.8642 14.4415 74.0901 13.7814C75.316 13.1024 76.6834 12.7629 78.1923 12.7629C79.7011 12.7629 81.0685 13.1024 82.2945 13.7814C83.5205 14.4415 84.4824 15.3846 85.1802 16.6106C85.897 17.8365 86.2553 19.251 86.2553 20.8542C86.2553 22.4573 85.8875 23.8719 85.1519 25.0979C84.4352 26.3238 83.4545 27.2763 82.2097 27.9552C80.9837 28.6154 79.6069 28.9455 78.0791 28.9455ZM78.0791 25.4939C78.7959 25.4939 79.4654 25.3242 80.0878 24.9847C80.7291 24.6264 81.2383 24.0982 81.6156 23.4004C81.9927 22.7026 82.1813 21.8538 82.1813 20.8542C82.1813 19.3642 81.7853 18.2231 80.9931 17.4309C80.2198 16.6199 79.2674 16.2144 78.1357 16.2144C77.0041 16.2144 76.0516 16.6199 75.2783 17.4309C74.5239 18.2231 74.1467 19.3642 74.1467 20.8542C74.1467 22.3441 74.5145 23.4947 75.25 24.3057C76.0045 25.0979 76.9475 25.4939 78.0791 25.4939Z" fill="#14142B"></path><path d="M108.625 12.7911C110.549 12.7911 112.095 13.3852 113.265 14.5735C114.453 15.7428 115.047 17.3837 115.047 19.4962V28.6908H111.086V20.0336C111.086 18.8077 110.775 17.874 110.153 17.2328C109.53 16.5727 108.681 16.2427 107.606 16.2427C106.531 16.2427 105.673 16.5727 105.032 17.2328C104.41 17.874 104.098 18.8077 104.098 20.0336V28.6908H100.138V20.0336C100.138 18.8077 99.8264 17.874 99.204 17.2328C98.5816 16.5727 97.7329 16.2427 96.6578 16.2427C95.5639 16.2427 94.6963 16.5727 94.055 17.2328C93.4326 17.874 93.1214 18.8077 93.1214 20.0336V28.6908H89.1606V13.0175H93.1214V14.913C93.6306 14.2528 94.2813 13.7342 95.0735 13.357C95.8845 12.9797 96.771 12.7911 97.7329 12.7911C98.9588 12.7911 100.053 13.0552 101.015 13.5833C101.977 14.0925 102.722 14.8281 103.25 15.79C103.759 14.8847 104.494 14.1585 105.456 13.6116C106.437 13.0646 107.493 12.7911 108.625 12.7911Z" fill="#14142B"></path><path d="M122.766 15.2808C123.276 14.5641 123.973 13.97 124.86 13.4985C125.765 13.0081 126.793 12.7629 127.943 12.7629C129.283 12.7629 130.489 13.093 131.564 13.7531C132.658 14.4133 133.517 15.3563 134.139 16.5822C134.781 17.7893 135.101 19.1945 135.101 20.7976C135.101 22.4008 134.781 23.8247 134.139 25.0696C133.517 26.2955 132.658 27.248 131.564 27.9269C130.489 28.606 129.283 28.9455 127.943 28.9455C126.793 28.9455 125.774 28.7097 124.888 28.2382C124.021 27.7667 123.313 27.1726 122.766 26.4558V36.1596H118.805V13.0176H122.766V15.2808ZM131.056 20.7976C131.056 19.8546 130.857 19.0436 130.461 18.3646C130.084 17.6667 129.575 17.1386 128.934 16.7803C128.311 16.4219 127.632 16.2428 126.897 16.2428C126.18 16.2428 125.501 16.4314 124.86 16.8085C124.237 17.167 123.728 17.695 123.332 18.3928C122.955 19.0908 122.766 19.9111 122.766 20.8542C122.766 21.7972 122.955 22.6177 123.332 23.3155C123.728 24.0133 124.237 24.5509 124.86 24.9281C125.501 25.2865 126.18 25.4656 126.897 25.4656C127.632 25.4656 128.311 25.277 128.934 24.8998C129.575 24.5225 130.084 23.9851 130.461 23.2872C130.857 22.5894 131.056 21.7595 131.056 20.7976Z" fill="#14142B"></path><path d="M136.961 20.7976C136.961 19.2133 137.272 17.8082 137.894 16.5822C138.535 15.3563 139.394 14.4133 140.469 13.7531C141.563 13.093 142.779 12.7629 144.118 12.7629C145.288 12.7629 146.306 12.9987 147.174 13.4702C148.061 13.9417 148.768 14.5358 149.295 15.2526V13.0176H153.284V28.6909H149.295V26.3993C148.787 27.1348 148.08 27.7478 147.174 28.2382C146.287 28.7097 145.259 28.9455 144.09 28.9455C142.77 28.9455 141.563 28.606 140.469 27.9269C139.394 27.248 138.535 26.2955 137.894 25.0696C137.272 23.8247 136.961 22.4008 136.961 20.7976ZM149.295 20.8542C149.295 19.8923 149.107 19.0718 148.73 18.3928C148.353 17.695 147.843 17.167 147.202 16.8085C146.561 16.4314 145.872 16.2428 145.136 16.2428C144.401 16.2428 143.722 16.4219 143.1 16.7803C142.478 17.1386 141.968 17.6667 141.572 18.3646C141.195 19.0436 141.007 19.8546 141.007 20.7976C141.007 21.7407 141.195 22.5705 141.572 23.2872C141.968 23.9851 142.478 24.5225 143.1 24.8998C143.741 25.277 144.42 25.4656 145.136 25.4656C145.872 25.4656 146.561 25.2865 147.202 24.9281C147.843 24.5509 148.353 24.0228 148.73 23.3438C149.107 22.6459 149.295 21.8161 149.295 20.8542Z" fill="#14142B"></path><path d="M165.838 12.7911C167.705 12.7911 169.214 13.3852 170.365 14.5735C171.516 15.7428 172.09 17.3837 172.09 19.4962V28.6908H168.13V20.0336C168.13 18.7889 167.819 17.8364 167.197 17.1762C166.574 16.4973 165.726 16.1578 164.65 16.1578C163.556 16.1578 162.689 16.4973 162.048 17.1762C161.425 17.8364 161.114 18.7889 161.114 20.0336V28.6908H157.153V13.0175H161.114V14.9695C161.642 14.2906 162.312 13.7625 163.123 13.3852C163.952 12.9892 164.858 12.7911 165.838 12.7911Z" fill="#14142B"></path><path d="M190.852 13.0175L181.147 36.103H176.933L180.328 28.2946L174.047 13.0175H178.489L182.534 23.9661L186.636 13.0175H190.852Z" fill="#14142B"></path><g filter="url(#filter0_d)"><path d="M14.1123 39.8634H11.908C11.3832 39.8634 10.9578 39.438 10.9578 38.9132V18.7233C10.9578 18.1985 11.3832 17.7731 11.908 17.7731H21.8407C22.3655 17.7731 22.7909 18.1985 22.7909 18.7233V31.1848C22.7909 35.9772 18.9075 39.8634 14.1123 39.8634Z" fill="#FF3951" fill-opacity="0.01"></path></g><path d="M14.1123 39.8634H11.908C11.3832 39.8634 10.9578 39.438 10.9578 38.9132V18.7233C10.9578 18.1985 11.3832 17.7731 11.908 17.7731H21.8407C22.3655 17.7731 22.7909 18.1985 22.7909 18.7233V31.1848C22.7909 35.9772 18.9075 39.8634 14.1123 39.8634Z" fill="#FF3951"></path><g filter="url(#filter1_d)"><path d="M37.6191 18.7729C38.1439 18.7729 38.5728 18.3461 38.5372 17.8225C38.0489 10.6424 32.0701 4.96716 24.7636 4.96716C24.3747 4.96716 23.9895 4.98425 23.6086 5.01677C23.1379 5.05697 22.791 5.46136 22.791 5.9338V17.8227C22.791 18.3475 23.2165 18.7729 23.7413 18.7729H37.6191Z" fill="#FF3951" fill-opacity="0.01"></path></g><path d="M37.6191 18.7729C38.1439 18.7729 38.5728 18.3461 38.5372 17.8225C38.0489 10.6424 32.0701 4.96716 24.7636 4.96716C24.3747 4.96716 23.9895 4.98425 23.6086 5.01677C23.1379 5.05697 22.791 5.46136 22.791 5.9338V17.8227C22.791 18.3475 23.2165 18.7729 23.7413 18.7729H37.6191Z" fill="#FF3951"></path><g filter="url(#filter2_d)"><path d="M34.099 32.3261C37.1252 31.0913 38.5774 27.637 37.3427 24.6108C36.1078 21.5846 32.6536 20.1325 29.6274 21.3672C26.6012 22.602 25.149 26.0563 26.3837 29.0825C27.6186 32.1087 31.0728 33.5609 34.099 32.3261Z" fill="#FFCD1D" fill-opacity="0.01"></path></g><path d="M34.099 32.326C37.1252 31.0912 38.5774 27.6369 37.3427 24.6107C36.1078 21.5845 32.6536 20.1324 29.6274 21.3671C26.6012 22.6019 25.149 26.0562 26.3837 29.0824C27.6186 32.1086 31.0728 33.5608 34.099 32.326Z" fill="#FFCD1D"></path><defs><filter id="filter0_d" x="0.957794" y="13.7731" width="31.8331" height="42.0903" filterUnits="userSpaceOnUse" color-interpolation-filters="sRGB"><feGaussianBlur stdDeviation="5"></feGaussianBlur></filter><filter id="filter1_d" x="12.791" y="0.967163" width="35.7483" height="33.8057" filterUnits="userSpaceOnUse" color-interpolation-filters="sRGB"><feGaussianBlur stdDeviation="5"></feGaussianBlur></filter><filter id="filter2_d" x="22.9436" y="20.6919" width="17.8392" height="17.8392" filterUnits="userSpaceOnUse" color-interpolation-filters="sRGB"><feGaussianBlur stdDeviation="1.5"></feGaussianBlur></filter></defs></svg>