<svg xmlns="http://www.w3.org/2000/svg" width="191" height="38" viewBox="0 0 191 38" fill="none"><path d="M44.8594 13.052C44.8594 11.0635 45.3034 9.28733 46.1915 7.72354C47.0989 6.14045 48.3248 4.91451 49.8693 4.04574C51.4331 3.15766 53.1803 2.71362 55.1109 2.71362C57.3697 2.71362 59.3486 3.2928 61.0475 4.45117C62.7464 5.60953 63.9338 7.21193 64.6095 9.25837H59.9471C59.4837 8.29307 58.8273 7.56909 57.9779 7.08644C57.1477 6.60379 56.1824 6.36247 55.082 6.36247C53.9043 6.36247 52.8521 6.64241 51.9255 7.20228C51.018 7.74285 50.3037 8.51509 49.7824 9.51901C49.2805 10.5229 49.0295 11.7006 49.0295 13.052C49.0295 14.3841 49.2805 15.5618 49.7824 16.585C50.3037 17.5889 51.018 18.3708 51.9255 18.9307C52.8521 19.4713 53.9043 19.7415 55.082 19.7415C56.1824 19.7415 57.1477 19.5002 57.9779 19.0176C58.8273 18.5156 59.4837 17.782 59.9471 16.8167H64.6095C63.9338 18.8824 62.7464 20.4945 61.0475 21.6528C59.3679 22.7919 57.389 23.3615 55.1109 23.3615C53.1803 23.3615 51.4331 22.9271 49.8693 22.0583C48.3248 21.1702 47.0989 19.9443 46.1915 18.3805C45.3034 16.8167 44.8594 15.0405 44.8594 13.052Z" fill="#1F2559"></path><path d="M75.1963 23.4484C73.6518 23.4484 72.2617 23.1105 71.0262 22.4348C69.7906 21.7398 68.8156 20.7648 68.1013 19.51C67.4063 18.255 67.0588 16.807 67.0588 15.1661C67.0588 13.5251 67.416 12.0771 68.1302 10.8222C68.8639 9.56733 69.8582 8.60203 71.1131 7.92631C72.3679 7.2313 73.7677 6.88379 75.3122 6.88379C76.8566 6.88379 78.2563 7.2313 79.5112 7.92631C80.7661 8.60203 81.7507 9.56733 82.4651 10.8222C83.1986 12.0771 83.5654 13.5251 83.5654 15.1661C83.5654 16.807 83.189 18.255 82.436 19.51C81.7025 20.7648 80.6985 21.7398 79.4243 22.4348C78.1694 23.1105 76.76 23.4484 75.1963 23.4484ZM75.1963 19.9153C75.9299 19.9153 76.6153 19.7416 77.2524 19.3941C77.9088 19.0273 78.43 18.4868 78.8162 17.7724C79.2023 17.0581 79.3954 16.1893 79.3954 15.1661C79.3954 13.6409 78.9899 12.4729 78.1791 11.6621C77.3875 10.8319 76.4125 10.4168 75.2542 10.4168C74.0959 10.4168 73.1209 10.8319 72.3294 11.6621C71.5571 12.4729 71.171 13.6409 71.171 15.1661C71.171 16.6912 71.5475 17.8689 72.3004 18.699C73.0727 19.51 74.0379 19.9153 75.1963 19.9153Z" fill="#1F2559"></path><path d="M106.463 6.91272C108.433 6.91272 110.016 7.52086 111.212 8.73714C112.429 9.93412 113.037 11.6138 113.037 13.776V23.1877H108.983V14.3262C108.983 13.0714 108.664 12.1157 108.027 11.4593C107.39 10.7836 106.521 10.4457 105.421 10.4457C104.32 10.4457 103.442 10.7836 102.786 11.4593C102.148 12.1157 101.83 13.0714 101.83 14.3262V23.1877H97.7755V14.3262C97.7755 13.0714 97.457 12.1157 96.8199 11.4593C96.1828 10.7836 95.314 10.4457 94.2137 10.4457C93.0938 10.4457 92.2058 10.7836 91.5494 11.4593C90.9123 12.1157 90.5937 13.0714 90.5937 14.3262V23.1877H86.5395V7.1444H90.5937V9.08465C91.115 8.40894 91.7811 7.87802 92.5919 7.4919C93.422 7.10578 94.3294 6.91272 95.314 6.91272C96.5689 6.91272 97.6887 7.183 98.6733 7.72357C99.6579 8.24484 100.42 8.99777 100.961 9.98238C101.482 9.0557 102.235 8.31241 103.22 7.75253C104.224 7.19266 105.305 6.91272 106.463 6.91272Z" fill="#1F2559"></path><path d="M120.939 9.46114C121.46 8.72752 122.175 8.11937 123.082 7.63672C124.008 7.13476 125.06 6.88379 126.238 6.88379C127.609 6.88379 128.844 7.22164 129.944 7.89736C131.064 8.57307 131.943 9.53837 132.58 10.7933C133.236 12.0289 133.565 13.4672 133.565 15.1081C133.565 16.7492 133.236 18.2068 132.58 19.4809C131.943 20.7359 131.064 21.7108 129.944 22.4059C128.844 23.1009 127.609 23.4484 126.238 23.4484C125.06 23.4484 124.018 23.2071 123.111 22.7244C122.223 22.2417 121.499 21.6336 120.939 20.9V30.833H116.884V7.14442H120.939V9.46114ZM129.424 15.1081C129.424 14.1429 129.221 13.3127 128.816 12.6177C128.43 11.9034 127.908 11.3628 127.252 10.996C126.614 10.6292 125.919 10.4458 125.166 10.4458C124.433 10.4458 123.737 10.6388 123.082 11.025C122.444 11.3917 121.924 11.9323 121.518 12.6466C121.131 13.361 120.939 14.2008 120.939 15.1661C120.939 16.1313 121.131 16.9712 121.518 17.6855C121.924 18.3999 122.444 18.9501 123.082 19.3362C123.737 19.703 124.433 19.8864 125.166 19.8864C125.919 19.8864 126.614 19.6933 127.252 19.3072C127.908 18.9211 128.43 18.3708 128.816 17.6566C129.221 16.9423 129.424 16.0928 129.424 15.1081Z" fill="#1F2559"></path><path d="M135.468 15.1081C135.468 13.4865 135.787 12.0482 136.424 10.7933C137.08 9.53837 137.959 8.57307 139.059 7.89736C140.179 7.22164 141.424 6.88379 142.795 6.88379C143.992 6.88379 145.035 7.12511 145.923 7.60777C146.83 8.09042 147.554 8.69855 148.095 9.43219V7.14442H152.178V23.1878H148.095V20.8421C147.573 21.595 146.85 22.2225 145.923 22.7244C145.015 23.2071 143.963 23.4484 142.767 23.4484C141.414 23.4484 140.179 23.1009 139.059 22.4059C137.959 21.7108 137.08 20.7359 136.424 19.4809C135.787 18.2068 135.468 16.7492 135.468 15.1081ZM148.095 15.1661C148.095 14.1815 147.902 13.3417 147.515 12.6466C147.129 11.9323 146.608 11.3917 145.951 11.025C145.295 10.6388 144.59 10.4458 143.837 10.4458C143.084 10.4458 142.39 10.6292 141.753 10.996C141.115 11.3628 140.595 11.9034 140.189 12.6177C139.802 13.3127 139.609 14.1429 139.609 15.1081C139.609 16.0735 139.802 16.923 140.189 17.6566C140.595 18.3708 141.115 18.9211 141.753 19.3072C142.409 19.6933 143.104 19.8864 143.837 19.8864C144.59 19.8864 145.295 19.703 145.951 19.3362C146.608 18.9501 147.129 18.4095 147.515 17.7145C147.902 17.0001 148.095 16.1507 148.095 15.1661Z" fill="#1F2559"></path><path d="M165.027 6.91272C166.939 6.91272 168.484 7.52086 169.661 8.73714C170.839 9.93412 171.427 11.6138 171.427 13.776V23.1877H167.374V14.3262C167.374 13.0521 167.055 12.0771 166.418 11.4014C165.78 10.7064 164.912 10.3589 163.811 10.3589C162.692 10.3589 161.803 10.7064 161.147 11.4014C160.51 12.0771 160.191 13.0521 160.191 14.3262V23.1877H156.138V7.1444H160.191V9.14257C160.732 8.44755 161.418 7.90698 162.247 7.52086C163.098 7.11543 164.024 6.91272 165.027 6.91272Z" fill="#1F2559"></path><path d="M190.631 7.14441L180.698 30.775H176.384L179.859 22.7823L173.43 7.14441H177.976L182.118 18.3515L186.317 7.14441H190.631Z" fill="#1F2559"></path><g filter="url(#filter0_d)"><path d="M14.4626 29.4686C8.90892 29.4686 4.42456 24.9498 4.42456 19.4305C4.42456 13.9113 8.90892 9.39246 14.4626 9.39246C19.9818 9.39246 24.5007 13.8768 24.5007 19.4305C24.4662 24.9498 19.9818 29.4686 14.4626 29.4686Z" fill="#F4263E"></path></g><path d="M14.4626 30.6188C8.27251 30.6188 3.27429 25.5822 3.27429 19.4305C3.27429 13.2788 8.27251 8.24219 14.4626 8.24219C20.6143 8.24219 25.651 13.2404 25.651 19.4305C25.6125 25.5822 20.6143 30.6188 14.4626 30.6188Z" fill="#F4263E"></path><g filter="url(#filter1_d)"><path d="M30.7199 1.96814H16.5446C15.8789 1.96814 15.3392 2.50784 15.3392 3.17359V17.3488C15.3392 18.0146 15.8789 18.5543 16.5446 18.5543H30.7199C31.3856 18.5543 31.9253 18.0146 31.9253 17.3488V3.17359C31.9253 2.50784 31.3856 1.96814 30.7199 1.96814Z" fill="#1B76FF"></path></g><path d="M31.4693 1.09143H15.7954C15.0592 1.09143 14.4625 1.68819 14.4625 2.42433V18.0982C14.4625 18.8343 15.0592 19.431 15.7954 19.431H31.4693C32.2053 19.431 32.8021 18.8343 32.8021 18.0982V2.42433C32.8021 1.68819 32.2053 1.09143 31.4693 1.09143Z" fill="#1B76FF"></path><defs><filter id="filter0_d" x="0.424561" y="7.39246" width="28.0762" height="28.0761" filterUnits="userSpaceOnUse" color-interpolation-filters="sRGB"><feGaussianBlur stdDeviation="2"></feGaussianBlur></filter><filter id="filter1_d" x="12.1392" y="1.76814" width="22.9861" height="22.9861" filterUnits="userSpaceOnUse" color-interpolation-filters="sRGB"><feGaussianBlur stdDeviation="1.6"></feGaussianBlur></filter></defs></svg>