<svg xmlns="http://www.w3.org/2000/svg" width="191" height="32" viewBox="0 0 191 32" fill="none"><g clip-path="url(#clip0)"><path d="M68.2981 21.2829C66.7935 21.2829 65.467 20.9562 64.3188 20.303C63.1705 19.6496 62.2599 18.7389 61.5868 17.5709C60.9334 16.4029 60.6068 15.0665 60.6068 13.5619C60.6068 12.0573 60.9334 10.721 61.5868 9.55295C62.2599 8.38491 63.1705 7.47422 64.3188 6.82092C65.467 6.1676 66.7935 5.84094 68.2981 5.84094C70.1789 5.84094 71.7627 6.33588 73.0495 7.32575C74.3363 8.29582 75.1579 9.64203 75.5142 11.3644H71.5053C71.3073 10.6517 70.9113 10.0974 70.3174 9.70141C69.7433 9.28571 69.0603 9.07785 68.2684 9.07785C67.2191 9.07785 66.3282 9.47374 65.5958 10.2657C64.8632 11.0575 64.497 12.1563 64.497 13.5619C64.497 14.9676 64.8632 16.0663 65.5958 16.8582C66.3282 17.6501 67.2191 18.046 68.2684 18.046C69.0603 18.046 69.7433 17.848 70.3174 17.4521C70.9113 17.0561 71.3073 16.4919 71.5053 15.7594H75.5142C75.1579 17.4224 74.3363 18.7587 73.0495 19.7684C71.7627 20.778 70.1789 21.2829 68.2981 21.2829Z" fill="#1F2559"></path><path d="M85.3618 21.2829C83.9365 21.2829 82.6493 20.9562 81.5009 20.303C80.3725 19.6496 79.472 18.7488 78.7989 17.6005C78.1456 16.4326 77.819 15.0863 77.819 13.5619C77.819 12.0376 78.1555 10.7012 78.8286 9.55295C79.5017 8.38491 80.4022 7.47422 81.5305 6.82092C82.679 6.1676 83.9662 5.84094 85.3915 5.84094C86.7967 5.84094 88.0639 6.1676 89.1922 6.82092C90.3406 7.47422 91.2419 8.38491 91.8951 9.55295C92.5676 10.7012 92.9047 12.0376 92.9047 13.5619C92.9047 15.0863 92.5676 16.4326 91.8951 17.6005C91.2419 18.7488 90.3406 19.6496 89.1922 20.303C88.0446 20.9562 86.767 21.2829 85.3618 21.2829ZM85.3618 17.9866C86.3513 17.9866 87.2124 17.6204 87.9451 16.8879C88.6778 16.1355 89.0438 15.0269 89.0438 13.5619C89.0438 12.0969 88.6778 10.9981 87.9451 10.2657C87.2124 9.51338 86.3617 9.13724 85.3915 9.13724C84.3819 9.13724 83.5104 9.51338 82.7785 10.2657C82.0658 10.9981 81.7095 12.0969 81.7095 13.5619C81.7095 15.0269 82.0658 16.1355 82.7785 16.8879C83.5104 17.6204 84.3715 17.9866 85.3618 17.9866Z" fill="#1F2559"></path><path d="M95.7095 20.9265V6.19729H99.0648L99.3914 8.18694C99.8665 7.47423 100.49 6.91 101.262 6.49426C102.054 6.05871 102.965 5.84094 103.995 5.84094C106.271 5.84094 107.885 6.72193 108.835 8.48389C109.369 7.6722 110.082 7.02879 110.973 6.55365C111.883 6.07851 112.874 5.84094 113.943 5.84094C115.863 5.84094 117.337 6.41507 118.367 7.56331C119.397 8.71158 119.911 10.3943 119.911 12.6117V20.9265H116.11V12.968C116.11 11.701 115.863 10.7309 115.368 10.0578C114.893 9.38466 114.151 9.04808 113.141 9.04808C112.111 9.04808 111.28 9.4243 110.646 10.1766C110.033 10.9289 109.726 11.9782 109.726 13.3243V20.9265H105.925V12.968C105.925 11.701 105.677 10.7309 105.182 10.0578C104.687 9.38466 103.925 9.04808 102.895 9.04808C101.886 9.04808 101.065 9.4243 100.431 10.1766C99.8168 10.9289 99.5102 11.9782 99.5102 13.3243V20.9265H95.7095Z" fill="#1F2559"></path><path d="M122.926 27.4597V6.19729H126.312L126.728 8.30572C127.203 7.6524 127.826 7.07828 128.598 6.58335C129.39 6.08842 130.41 5.84094 131.657 5.84094C133.043 5.84094 134.28 6.1775 135.369 6.85061C136.457 7.52372 137.319 8.4443 137.953 9.61233C138.586 10.7804 138.903 12.1068 138.903 13.5916C138.903 15.0765 138.586 16.4029 137.953 17.5709C137.319 18.7191 136.457 19.6298 135.369 20.303C134.28 20.9562 133.043 21.2829 131.657 21.2829C130.548 21.2829 129.578 21.075 128.747 20.6593C127.915 20.2436 127.242 19.6595 126.728 18.9072V27.4597H122.926ZM130.855 17.9569C132.063 17.9569 133.063 17.5511 133.854 16.7394C134.646 15.9277 135.043 14.8785 135.043 13.5916C135.043 12.3048 134.646 11.2456 133.854 10.4141C133.063 9.58264 132.063 9.16693 130.855 9.16693C129.628 9.16693 128.618 9.58264 127.826 10.4141C127.054 11.2258 126.668 12.2751 126.668 13.5619C126.668 14.8488 127.054 15.9079 127.826 16.7394C128.618 17.5511 129.628 17.9569 130.855 17.9569Z" fill="#1F2559"></path><path d="M146.783 21.2829C145.515 21.2829 144.476 21.0849 143.664 20.689C142.853 20.2733 142.248 19.7288 141.853 19.0557C141.457 18.3826 141.259 17.6402 141.259 16.8285C141.259 15.4625 141.793 14.3538 142.862 13.5026C143.931 12.6512 145.536 12.2256 147.673 12.2256H151.415V11.8693C151.415 10.8596 151.128 10.1172 150.554 9.64203C149.98 9.16693 149.267 8.92931 148.416 8.92931C147.644 8.92931 146.97 9.11742 146.397 9.49356C145.822 9.84988 145.466 10.3844 145.328 11.0972H141.615C141.714 10.0281 142.07 9.0976 142.684 8.30572C143.318 7.51382 144.13 6.91 145.119 6.49426C146.109 6.05871 147.218 5.84094 148.445 5.84094C150.544 5.84094 152.197 6.36557 153.404 7.41484C154.612 8.46409 155.216 9.94891 155.216 11.8693V20.9265H151.979L151.623 18.5509C151.188 19.3427 150.574 19.9961 149.782 20.5108C149.01 21.0255 148.01 21.2829 146.783 21.2829ZM147.644 18.3133C148.733 18.3133 149.574 17.9569 150.168 17.2442C150.782 16.5315 151.168 15.6505 151.326 14.6013H148.089C147.08 14.6013 146.357 14.7893 145.922 15.1655C145.486 15.5219 145.268 15.9673 145.268 16.5018C145.268 17.0759 145.486 17.5214 145.922 17.8382C146.357 18.1549 146.931 18.3133 147.644 18.3133Z" fill="#1F2559"></path><path d="M158.25 20.9265V6.19729H161.605L161.902 8.69176C162.357 7.82068 163.011 7.12778 163.862 6.61304C164.734 6.09831 165.753 5.84094 166.921 5.84094C168.742 5.84094 170.158 6.41507 171.167 7.56331C172.177 8.71158 172.682 10.3943 172.682 12.6117V20.9265H168.881V12.968C168.881 11.701 168.623 10.7309 168.109 10.0578C167.594 9.38466 166.792 9.04808 165.703 9.04808C164.634 9.04808 163.753 9.4243 163.06 10.1766C162.387 10.9289 162.051 11.9782 162.051 13.3243V20.9265H158.25Z" fill="#1F2559"></path><path d="M177.071 27.4598L180.486 19.9467H179.595L173.864 6.19739H177.991L182.119 16.5613L186.425 6.19739H190.464L181.11 27.4598H177.071Z" fill="#1F2559"></path><g filter="url(#filter0_d)"><path d="M16.7393 24.8594C16.0469 25.5518 14.924 25.5509 14.2328 24.8573L4.24025 14.8305C3.55071 14.1385 3.55167 13.0189 4.2424 12.3282L14.2349 2.33569C14.9256 1.64496 16.0452 1.644 16.7372 2.33354L26.764 12.3261C27.4576 13.0173 27.4586 14.1402 26.7662 14.8326L16.7393 24.8594Z" fill="#782CE4"></path></g><path d="M16.7971 25.3858C16.0723 26.1106 14.8968 26.1096 14.1734 25.3836L3.71382 14.8881C2.99206 14.1638 2.99306 12.9919 3.71607 12.2689L14.1756 1.80939C14.8986 1.08639 16.0705 1.08538 16.7948 1.80715L27.2903 12.2667C28.0162 12.9902 28.0173 14.1656 27.2925 14.8904L16.7971 25.3858Z" fill="#782CE4"></path><g filter="url(#filter1_d)"><path d="M28.8506 24.8573C28.1593 25.5509 27.0364 25.5519 26.3439 24.8594L16.3162 14.8318C15.6238 14.1393 15.6247 13.0162 16.3184 12.325L26.346 2.33163C27.038 1.64204 28.1577 1.643 28.8485 2.33378L38.8418 12.3272C39.5326 13.0179 39.5336 14.1376 38.844 14.8296L28.8506 24.8573Z" fill="#FFCD1D"></path></g><path d="M28.91 25.3826C28.1864 26.1086 27.011 26.1096 26.2863 25.3848L15.7908 14.8894C15.0661 14.1646 15.067 12.9892 15.7931 12.2657L26.2885 1.80617C27.0128 1.0844 28.1847 1.08541 28.9077 1.80842L39.3672 12.268C40.0902 12.991 40.0912 14.1629 39.3694 14.8871L28.91 25.3826Z" fill="#FFCD1D"></path><g filter="url(#filter2_d)"><path d="M39.5818 24.8584C38.8899 25.5514 37.767 25.5514 37.0752 24.8584L27.0632 14.8307C26.372 14.1385 26.373 13.017 27.0653 12.326L37.0774 2.33261C37.7687 1.64255 38.8882 1.64255 39.5796 2.33261L49.5916 12.326C50.2839 13.017 50.2849 14.1385 49.5937 14.8307L39.5818 24.8584Z" fill="#F4263E"></path></g><path d="M39.6403 25.3839C38.9162 26.1092 37.7409 26.1092 37.0167 25.3839L26.5375 14.8883C25.8141 14.1638 25.8152 12.9899 26.5398 12.2667L37.019 1.80695C37.7426 1.08469 38.9144 1.08469 39.638 1.80695L50.1172 12.2667C50.8419 12.9899 50.8428 14.1638 50.1194 14.8883L39.6403 25.3839Z" fill="#F4263E"></path></g><defs><filter id="filter0_d" x="0.124024" y="0.917087" width="30.7605" height="30.7605" filterUnits="userSpaceOnUse" color-interpolation-filters="sRGB"><feGaussianBlur stdDeviation="1.79985"></feGaussianBlur></filter><filter id="filter1_d" x="12.1978" y="1.81505" width="30.7625" height="30.7625" filterUnits="userSpaceOnUse" color-interpolation-filters="sRGB"><feGaussianBlur stdDeviation="1.79985"></feGaussianBlur></filter><filter id="filter2_d" x="22.9458" y="0.915133" width="30.7654" height="30.7625" filterUnits="userSpaceOnUse" color-interpolation-filters="sRGB"><feGaussianBlur stdDeviation="1.79985"></feGaussianBlur></filter><clipPath id="clip0"><rect width="191" height="31.2983" fill="white" transform="translate(0 0.5)"></rect></clipPath></defs></svg>