<svg xmlns="http://www.w3.org/2000/svg" width="191" height="47" viewBox="0 0 191 47" fill="none"><g clip-path="url(#clip0)"><g filter="url(#filter0_d)"><path d="M31.3064 16.7295C27.4387 16.7295 24.2992 13.6019 24.2992 9.75823C24.2992 9.25685 24.3589 8.77937 24.4544 8.30188H15.1435C11.5385 8.30188 8.61394 11.2145 8.61394 14.7957V26.7925C8.61394 30.3855 11.5385 33.2862 15.1435 33.2862H27.2C30.8169 33.2862 33.7296 30.3736 33.7296 26.7925V16.2878C32.9895 16.5623 32.1659 16.7295 31.3064 16.7295Z" fill="#6A35FF" fill-opacity="0.01"></path></g><path d="M31.3064 16.7295C27.4387 16.7295 24.2992 13.6019 24.2992 9.75823C24.2992 9.25685 24.3589 8.77937 24.4544 8.30188H15.1435C11.5385 8.30188 8.61393 11.2145 8.61393 14.7957V26.7925C8.61393 30.3855 11.5385 33.2862 15.1435 33.2862H27.2C30.8169 33.2862 33.7296 30.3736 33.7296 26.7925V16.2878C32.9895 16.5623 32.1659 16.7295 31.3064 16.7295Z" fill="#6A35FF"></path><g filter="url(#filter1_d)"><path d="M31.8432 14.3214C34.6484 14.3214 36.9164 12.0652 36.9164 9.27189C36.9164 6.49059 34.6484 4.22253 31.8432 4.22253C29.038 4.22253 26.7699 6.47865 26.7699 9.27189C26.7699 12.0532 29.038 14.3214 31.8432 14.3214Z" fill="#FF3951" fill-opacity="0.01"></path></g><path d="M31.8432 14.3214C34.6484 14.3214 36.9164 12.0652 36.9164 9.27189C36.9164 6.49059 34.6484 4.22253 31.8432 4.22253C29.038 4.22253 26.7699 6.47865 26.7699 9.27189C26.7699 12.0532 29.038 14.3214 31.8432 14.3214Z" fill="#FF3951"></path><path d="M62.5805 20.7445C62.3809 21.5931 62.0439 22.4168 61.5697 23.2154C61.0955 23.9891 60.509 24.688 59.8101 25.312C59.1113 25.911 58.3126 26.3977 57.414 26.772C56.5156 27.1214 55.5546 27.2962 54.5313 27.2962C53.3583 27.2962 52.2477 27.0716 51.1994 26.6223C50.1761 26.1481 49.2651 25.5116 48.4664 24.7129C47.6927 23.9143 47.0687 22.9908 46.5945 21.9426C46.1452 20.8693 45.9206 19.7212 45.9206 18.4983C45.9206 17.2753 46.1452 16.1397 46.5945 15.0914C47.0687 14.0182 47.6927 13.0822 48.4664 12.2836C49.2651 11.4849 50.1761 10.8609 51.1994 10.4117C52.2477 9.93741 53.3583 9.70032 54.5313 9.70032C55.5546 9.70032 56.5156 9.88755 57.414 10.2619C58.3126 10.6113 59.1113 11.098 59.8101 11.722C60.509 12.321 61.0955 13.0199 61.5697 13.8185C62.0439 14.5922 62.3809 15.4034 62.5805 16.252H58.2751C58.0755 15.8028 57.8009 15.4034 57.4515 15.0539C57.152 14.7545 56.7652 14.4799 56.2909 14.2303C55.8167 13.9558 55.2302 13.8185 54.5313 13.8185C53.3084 13.8185 52.2851 14.2428 51.4615 15.0914C50.6378 15.94 50.226 17.0756 50.226 18.4983C50.226 19.9209 50.6378 21.0566 51.4615 21.9051C52.2851 22.7537 53.3084 23.178 54.5313 23.178C55.2302 23.178 55.8167 23.0532 56.2909 22.8037C56.7652 22.5541 57.152 22.2795 57.4515 21.98C57.8009 21.6306 58.0755 21.2187 58.2751 20.7445H62.5805Z" fill="#14142B"></path><path d="M69.6937 18.4983C69.6937 19.9209 70.1055 21.0566 70.9291 21.9051C71.7528 22.7537 72.7762 23.178 73.9991 23.178C75.2221 23.178 76.2454 22.7537 77.069 21.9051C77.8926 21.0566 78.3045 19.9209 78.3045 18.4983C78.3045 17.0756 77.8926 15.94 77.069 15.0914C76.2454 14.2428 75.2221 13.8185 73.9991 13.8185C72.7762 13.8185 71.7528 14.2428 70.9291 15.0914C70.1055 15.94 69.6937 17.0756 69.6937 18.4983ZM82.6098 18.4983C82.6098 19.7212 82.3727 20.8693 81.8985 21.9426C81.4492 22.9908 80.8252 23.9143 80.0266 24.7129C79.2529 25.5116 78.3419 26.1481 77.2937 26.6223C76.2703 27.0716 75.1722 27.2962 73.9991 27.2962C72.826 27.2962 71.7154 27.0716 70.6672 26.6223C69.6438 26.1481 68.7328 25.5116 67.9341 24.7129C67.1605 23.9143 66.5365 22.9908 66.0622 21.9426C65.613 20.8693 65.3884 19.7212 65.3884 18.4983C65.3884 17.2753 65.613 16.1397 66.0622 15.0914C66.5365 14.0182 67.1605 13.0822 67.9341 12.2836C68.7328 11.4849 69.6438 10.8609 70.6672 10.4117C71.7154 9.93741 72.826 9.70032 73.9991 9.70032C75.1722 9.70032 76.2703 9.93741 77.2937 10.4117C78.3419 10.8609 79.2529 11.4849 80.0266 12.2836C80.8252 13.0822 81.4492 14.0182 81.8985 15.0914C82.3727 16.1397 82.6098 17.2753 82.6098 18.4983Z" fill="#14142B"></path><path d="M94.5725 9.70032C95.4458 9.70032 96.1951 9.82511 96.8186 10.0747C97.4431 10.2993 97.9545 10.5489 98.354 10.8235C98.803 11.148 99.1648 11.5223 99.4394 11.9466C99.8388 11.5223 100.301 11.148 100.824 10.8235C101.274 10.5489 101.81 10.2993 102.435 10.0747C103.058 9.82511 103.745 9.70032 104.494 9.70032C106.365 9.70032 107.863 10.2993 108.986 11.4974C110.109 12.6953 110.671 14.4674 110.671 16.8135V27.109H106.365V17.1879C106.365 16.1397 106.078 15.316 105.505 14.717C104.955 14.118 104.306 13.8185 103.558 13.8185C102.809 13.8185 102.147 14.118 101.573 14.717C101.024 15.316 100.75 16.1397 100.75 17.1879V27.109H96.444V17.1879C96.444 16.1397 96.1575 15.316 95.5836 14.717C95.0344 14.118 94.3852 13.8185 93.6368 13.8185C92.8875 13.8185 92.2264 14.118 91.6523 14.717C91.1031 15.316 90.8286 16.1397 90.8286 17.1879V27.109H86.5233V9.88755H89.7054L90.4542 11.5722C90.8037 11.2228 91.1905 10.9109 91.6148 10.6363C91.9647 10.4117 92.3889 10.1995 92.8875 9.99986C93.3871 9.80013 93.9481 9.70032 94.5725 9.70032Z" fill="#14142B"></path><path d="M124.148 9.70032C125.222 9.70032 126.245 9.92493 127.218 10.3742C128.191 10.7985 129.041 11.41 129.764 12.2087C130.513 12.9824 131.099 13.9059 131.524 14.9791C131.973 16.0524 132.198 17.2253 132.198 18.4983C132.198 19.7712 131.973 20.9442 131.524 22.0174C131.099 23.0906 130.513 24.0266 129.764 24.8252C129.041 25.599 128.191 26.2104 127.218 26.6597C126.245 27.084 125.222 27.2962 124.148 27.2962C123.425 27.2962 122.788 27.2088 122.239 27.0341C121.715 26.8594 121.253 26.6722 120.853 26.4725C120.404 26.2229 120.005 25.936 119.656 25.6114V33.099H115.35V9.88755H118.533L119.281 11.5722C119.656 11.2228 120.092 10.9109 120.592 10.6363C121.016 10.4117 121.527 10.1995 122.127 9.99986C122.726 9.80013 123.4 9.70032 124.148 9.70032ZM119.281 18.4983C119.281 19.9209 119.694 21.0566 120.517 21.9051C121.34 22.7537 122.364 23.178 123.587 23.178C124.81 23.178 125.833 22.7537 126.657 21.9051C127.481 21.0566 127.892 19.9209 127.892 18.4983C127.892 17.0756 127.481 15.94 126.657 15.0914C125.833 14.2428 124.81 13.8185 123.587 13.8185C122.364 13.8185 121.34 14.2428 120.517 15.0914C119.694 15.94 119.281 17.0756 119.281 18.4983Z" fill="#14142B"></path><path d="M143.247 9.70032C144.221 9.70032 145.12 9.87506 145.943 10.2245C146.767 10.5489 147.478 11.0107 148.077 11.6097C148.676 12.2087 149.138 12.92 149.462 13.7436C149.812 14.5672 149.986 15.4658 149.986 16.4391V27.109H146.805L146.055 25.4243C145.656 25.7737 145.22 26.0856 144.745 26.3602C144.321 26.6098 143.809 26.8344 143.211 27.0341C142.611 27.2088 141.937 27.2962 141.188 27.2962C139.317 27.2962 137.882 26.8469 136.883 25.9484C135.885 25.0249 135.386 23.8519 135.386 22.4293C135.386 21.5806 135.548 20.807 135.873 20.1081C136.222 19.3843 136.795 18.7728 137.594 18.2736C138.393 17.7495 139.441 17.3501 140.739 17.0756C142.062 16.7761 143.709 16.6264 145.681 16.6264C145.681 15.6779 145.419 14.9416 144.895 14.4176C144.396 13.8934 143.722 13.6313 142.874 13.6313C142.3 13.6313 141.838 13.7312 141.488 13.9308C141.164 14.1305 140.901 14.3426 140.702 14.5672C140.477 14.8418 140.327 15.1538 140.253 15.5032H135.947C136.047 14.7045 136.272 13.9558 136.621 13.257C136.996 12.5581 137.494 11.9466 138.119 11.4224C138.742 10.8984 139.479 10.4865 140.327 10.187C141.201 9.86258 142.175 9.70032 143.247 9.70032ZM141.937 23.9268C143.061 23.9268 143.959 23.6023 144.633 22.9533C145.332 22.2795 145.681 21.4184 145.681 20.3701V19.6214C144.408 19.6214 143.385 19.6838 142.611 19.8086C141.838 19.9084 141.226 20.0706 140.777 20.2953C140.352 20.4949 140.065 20.7445 139.916 21.0441C139.766 21.3435 139.691 21.6805 139.691 22.0549C139.691 22.5291 139.903 22.9658 140.327 23.3652C140.751 23.7396 141.289 23.9268 141.937 23.9268Z" fill="#14142B"></path><path d="M163.449 9.70032C164.473 9.70032 165.409 9.87506 166.257 10.2245C167.106 10.5489 167.829 11.0357 168.429 11.6845C169.052 12.3085 169.527 13.0697 169.851 13.9682C170.201 14.8668 170.376 15.8776 170.376 17.0007V27.109H166.07V17.5623C166.07 16.4391 165.733 15.5407 165.059 14.8668C164.411 14.168 163.562 13.8185 162.513 13.8185C161.465 13.8185 160.604 14.168 159.93 14.8668C159.281 15.5407 158.957 16.4391 158.957 17.5623V27.109H154.651V9.88755H157.834L158.582 11.5722C159.007 11.2228 159.468 10.9109 159.968 10.6363C160.392 10.4117 160.891 10.1995 161.465 9.99986C162.064 9.80013 162.726 9.70032 163.449 9.70032Z" fill="#14142B"></path><path d="M173.198 9.88757H177.691L181.995 21.1189L185.927 9.88757H190.42C189.197 13.0324 188.085 15.8776 187.087 18.4234C186.663 19.5216 186.239 20.5948 185.815 21.6431C185.415 22.6914 185.053 23.6522 184.729 24.5258C184.404 25.3744 184.13 26.0857 183.905 26.6598C183.68 27.2338 183.544 27.5708 183.493 27.6706C183.069 28.6939 182.645 29.555 182.22 30.2538C181.821 30.9776 181.385 31.5641 180.91 32.0134C180.436 32.4627 179.924 32.7871 179.376 32.9867C178.827 33.1864 178.202 33.2863 177.503 33.2863C177.304 33.2863 177.104 33.2738 176.905 33.2488C176.729 33.2488 176.58 33.2363 176.455 33.2114C176.28 33.1865 176.13 33.149 176.006 33.099V29.5425C176.954 29.5425 177.678 29.3304 178.177 28.906C178.702 28.4817 179.101 27.9452 179.376 27.2962L179.749 26.3602L173.198 9.88757Z" fill="#14142B"></path></g><defs><filter id="filter0_d" x="-0.386063" y="4.30188" width="43.1157" height="42.9843" filterUnits="userSpaceOnUse" color-interpolation-filters="sRGB"><feGaussianBlur stdDeviation="4.5"></feGaussianBlur></filter><filter id="filter1_d" x="16.7699" y="0.222534" width="30.1465" height="30.0988" filterUnits="userSpaceOnUse" color-interpolation-filters="sRGB"><feGaussianBlur stdDeviation="5"></feGaussianBlur></filter><clipPath id="clip0"><rect width="191" height="46.8317" fill="white"></rect></clipPath></defs></svg>