<svg xmlns="http://www.w3.org/2000/svg" width="191" height="37" viewBox="0 0 191 37" fill="none"><path d="M68.8702 17.4777C67.5142 19.6775 65.5856 20.943 63.0846 20.943C59.4687 20.943 56.817 18.0202 56.817 14.2536C56.817 10.4869 59.3482 7.5942 63.1449 7.5942C65.5555 7.5942 67.7251 8.95017 68.8099 10.9992L72.3053 8.22699C70.5275 5.06304 67.3032 3.16467 63.2052 3.16467C56.6362 3.16467 52.0259 8.04619 52.0259 14.2536C52.0259 20.4609 56.7266 25.3726 63.1449 25.3726C67.1827 25.3726 70.5575 23.2332 72.3957 20.1897L68.8702 17.4777Z" fill="#1F2559"></path><path d="M81.9675 9.19116C77.1463 9.19116 73.681 12.6866 73.681 17.2668C73.681 21.8168 77.1463 25.3725 81.9675 25.3725C86.7888 25.3725 90.2541 21.8168 90.2541 17.2668C90.2541 12.6866 86.7888 9.19116 81.9675 9.19116ZM81.9675 13.2591C84.0468 13.2591 85.6136 14.8561 85.6136 17.2668C85.6136 19.6774 84.0468 21.3045 81.9675 21.3045C79.8884 21.3045 78.3215 19.6774 78.3215 17.2668C78.3215 14.8561 79.8884 13.2591 81.9675 13.2591Z" fill="#1F2559"></path><path d="M93.2478 9.55275V25.0109H97.828V16.9654C97.828 14.9465 98.8827 13.229 100.811 13.229C102.499 13.229 103.583 14.2836 103.583 16.3025V25.0109H108.164V16.9654C108.164 14.9465 109.219 13.229 111.147 13.229C112.834 13.229 113.889 14.2836 113.889 16.3025V25.0109H118.469V15.6094C118.469 11.6018 116.21 9.19116 112.502 9.19116C109.881 9.19116 108.404 10.3362 107.29 11.9031C106.235 10.1855 104.548 9.19116 102.167 9.19116C100.148 9.19116 98.6416 9.97462 97.6472 11.5415V9.55275H93.2478Z" fill="#1F2559"></path><path d="M130.486 13.229C132.445 13.229 134.071 14.826 134.071 17.327C134.071 19.7377 132.445 21.3347 130.486 21.3347C128.437 21.3347 126.84 19.7678 126.84 17.327C126.84 14.7958 128.437 13.229 130.486 13.229ZM126.629 9.55275H122.381V31.0375H126.96V23.3234C127.925 24.7698 129.763 25.3725 131.42 25.3725C135.639 25.3725 138.682 21.8771 138.682 17.2668C138.682 12.5058 135.398 9.19116 131.45 9.19116C129.943 9.19116 127.834 9.82395 126.629 11.6922V9.55275Z" fill="#1F2559"></path><path d="M149.699 15.3986L145.481 16.2121C142.226 16.9052 140.448 18.472 140.448 20.7622C140.448 23.4439 142.558 25.3725 145.571 25.3725C147.62 25.3725 149.127 24.4685 149.85 23.1125V25.0109H154.098V15.2779C154.098 11.5114 151.537 9.19116 147.229 9.19116C144.336 9.19116 142.016 10.3965 140.6 12.114L142.98 15.0068C143.914 13.9521 145.239 13.1385 146.957 13.1385C148.524 13.1385 149.699 13.7413 149.699 15.2779V15.3986ZM146.596 21.9675C145.511 21.9675 144.818 21.3648 144.818 20.491C144.818 19.6472 145.421 19.1048 146.656 18.894L149.729 18.2912V18.7433C149.729 20.5814 148.494 21.9675 146.596 21.9675Z" fill="#1F2559"></path><path d="M157.957 9.55275V25.0109H162.537V16.9654C162.537 14.9465 163.591 13.229 165.581 13.229C167.268 13.229 168.353 14.2836 168.353 16.3025V25.0109H172.933V15.6094C172.933 11.6018 170.642 9.19116 166.936 9.19116C164.858 9.19116 163.351 9.97462 162.356 11.5415V9.55275H157.957Z" fill="#1F2559"></path><path d="M180.411 24.4383L180.231 24.9506C179.568 27.1503 178.453 27.5421 177.248 27.5421C176.735 27.5421 175.952 27.4818 175.138 27.0298V30.8265C175.832 31.158 176.825 31.3991 177.91 31.3991C180.833 31.3991 182.701 30.0129 184.239 26.2764L190.988 9.55273H186.317L182.701 19.6774L179.116 9.55273H174.325L180.411 24.4383Z" fill="#1F2559"></path><g filter="url(#filter0_d)"><path d="M23.8288 1.66895H20.4334C19.9635 1.66895 19.5825 2.14277 19.5825 2.72727V26.8406C19.5825 27.4251 19.9635 27.8989 20.4334 27.8989H23.8288C24.2988 27.8989 24.6798 27.4251 24.6798 26.8406V2.72727C24.6798 2.14277 24.2988 1.66895 23.8288 1.66895Z" fill="#F4263E"></path></g><path d="M24.3385 1.073H19.9238C19.3128 1.073 18.8174 1.56835 18.8174 2.1794V27.3883C18.8174 27.9994 19.3128 28.4947 19.9238 28.4947H24.3385C24.9496 28.4947 25.4449 27.9994 25.4449 27.3883V2.1794C25.4449 1.56835 24.9496 1.073 24.3385 1.073Z" fill="#F4263E"></path><g filter="url(#filter1_d)"><path d="M34.3373 27.8989C37.1197 27.8989 39.3753 25.6432 39.3753 22.8608C39.3753 20.0784 37.1197 17.8228 34.3373 17.8228C31.5548 17.8228 29.2992 20.0784 29.2992 22.8608C29.2992 25.6432 31.5548 27.8989 34.3373 27.8989Z" fill="#1B76FF"></path></g><path d="M34.3373 28.4944C37.4486 28.4944 39.9708 25.9721 39.9708 22.8607C39.9708 19.7494 37.4486 17.2272 34.3373 17.2272C31.2259 17.2272 28.7037 19.7494 28.7037 22.8607C28.7037 25.9721 31.2259 28.4944 34.3373 28.4944Z" fill="#1B76FF"></path><g filter="url(#filter2_d)"><path d="M34.3373 10.9986C36.7076 10.9986 38.6292 9.07704 38.6292 6.70665C38.6292 4.33625 36.7076 2.41467 34.3373 2.41467C31.9669 2.41467 30.0453 4.33625 30.0453 6.70665C30.0453 9.07704 31.9669 10.9986 34.3373 10.9986Z" fill="#FFCD1D"></path></g><path d="M34.3373 12.3402C37.4486 12.3402 39.9708 9.81793 39.9708 6.70659C39.9708 3.59524 37.4486 1.073 34.3373 1.073C31.2259 1.073 28.7037 3.59524 28.7037 6.70659C28.7037 9.81793 31.2259 12.3402 34.3373 12.3402Z" fill="#FFCD1D"></path><g filter="url(#filter3_d)"><path d="M9.92573 27.8989C12.7081 27.8989 14.9638 25.6432 14.9638 22.8608C14.9638 20.0784 12.7081 17.8228 9.92573 17.8228C7.14327 17.8228 4.88766 20.0784 4.88766 22.8608C4.88766 25.6432 7.14327 27.8989 9.92573 27.8989Z" fill="#782CE4"></path></g><path d="M9.92572 28.4944C13.037 28.4944 15.5593 25.9721 15.5593 22.8607C15.5593 19.7494 13.037 17.2272 9.92572 17.2272C6.81438 17.2272 4.29214 19.7494 4.29214 22.8607C4.29214 25.9721 6.81438 28.4944 9.92572 28.4944Z" fill="#782CE4"></path><defs><filter id="filter0_d" x="15.5825" y="0.668945" width="13.0973" height="34.23" filterUnits="userSpaceOnUse" color-interpolation-filters="sRGB"><feGaussianBlur stdDeviation="2"></feGaussianBlur></filter><filter id="filter1_d" x="25.2992" y="16.8228" width="18.0761" height="18.0761" filterUnits="userSpaceOnUse" color-interpolation-filters="sRGB"><feGaussianBlur stdDeviation="2"></feGaussianBlur></filter><filter id="filter2_d" x="26.0453" y="1.41467" width="16.5839" height="16.5839" filterUnits="userSpaceOnUse" color-interpolation-filters="sRGB"><feGaussianBlur stdDeviation="2"></feGaussianBlur></filter><filter id="filter3_d" x="0.887657" y="16.8228" width="18.0761" height="18.0761" filterUnits="userSpaceOnUse" color-interpolation-filters="sRGB"><feGaussianBlur stdDeviation="2"></feGaussianBlur></filter></defs></svg>