<svg xmlns="http://www.w3.org/2000/svg" width="100" height="100" viewBox="0 0 100 100" fill="none"><g clip-path="url(#clip0)"><path d="M100 0H0V100H100V0Z" fill="white"></path><path d="M100 0H0V100H100V0Z" fill="#DEEBFF"></path><g filter="url(#filter0_d)"><path d="M73.9327 27.0693H25.287V71.9732H73.9327V27.0693Z" fill="white" fill-opacity="0.01"></path><path fill-rule="evenodd" clip-rule="evenodd" d="M35.99 20H64.0071C74.2101 20 79.9701 25.787 80.0001 35.99V64.0101C80.0001 74.2101 74.2101 80.0001 64.0071 80.0001H35.99C25.787 80.0001 20 74.2101 20 64.0101V35.99C20 25.787 25.787 20 35.99 20ZM50.1471 67.58C51.4401 67.58 52.5171 66.62 52.6371 65.33V34.76C52.7571 33.83 52.3101 32.897 51.5001 32.39C50.6571 31.88 49.6371 31.88 48.8302 32.39C48.0171 32.897 47.5701 33.83 47.6571 34.76V65.33C47.8101 66.62 48.8871 67.58 50.1471 67.58ZM63.9501 67.5801C65.2101 67.5801 66.2871 66.6201 66.4401 65.3301V55.4901C66.5271 54.527 66.0801 53.6301 65.2671 53.12C64.4601 52.61 63.4401 52.61 62.6001 53.12C61.7871 53.6301 61.3401 54.527 61.4601 55.4901V65.3301C61.5801 66.6201 62.6571 67.5801 63.9501 67.5801ZM38.6568 65.3301C38.5368 66.6201 37.4598 67.5801 36.1668 67.5801C34.8769 67.5801 33.7969 66.6201 33.6798 65.3301V44.6001C33.5899 43.667 34.0368 42.7401 34.8499 42.2301C35.6568 41.7201 36.6798 41.7201 37.4898 42.2301C38.2968 42.7401 38.7498 43.667 38.6568 44.6001V65.3301Z" fill="#3F80FD"></path></g><path d="M75.8854 25.1982H23.2705V73.7659H75.8854V25.1982Z" fill="white"></path><path fill-rule="evenodd" clip-rule="evenodd" d="M34.8474 17.552H65.1505C76.186 17.552 82.416 23.8112 82.4484 34.8467V65.153C82.4484 76.1853 76.186 82.4477 65.1505 82.4477H34.8474C23.8119 82.4477 17.5527 76.1853 17.5527 65.153V34.8467C17.5527 23.8112 23.8119 17.552 34.8474 17.552ZM50.1596 69.0142C51.5581 69.0142 52.723 67.9759 52.8528 66.5806V33.5163C52.9826 32.5104 52.4991 31.5013 51.623 30.9529C50.7112 30.4013 49.608 30.4013 48.7352 30.9529C47.8558 31.5013 47.3723 32.5104 47.4664 33.5163V66.5806C47.6319 67.9759 48.7968 69.0142 50.1596 69.0142ZM65.0888 69.0143C66.4516 69.0143 67.6165 67.976 67.782 66.5807V55.9378C67.8761 54.8962 67.3926 53.9261 66.5133 53.3744C65.6404 52.8228 64.5372 52.8228 63.6287 53.3744C62.7493 53.9261 62.2659 54.8962 62.3957 55.9378V66.5807C62.5254 67.976 63.6903 69.0143 65.0888 69.0143ZM37.7318 66.5807C37.602 67.976 36.4371 69.0143 35.0386 69.0143C33.6434 69.0143 32.4753 67.976 32.3487 66.5807V44.1593C32.2514 43.1501 32.7348 42.1475 33.6142 41.5959C34.487 41.0443 35.5935 41.0443 36.4696 41.5959C37.3424 42.1475 37.8324 43.1501 37.7318 44.1593V66.5807Z" fill="#3F80FD"></path></g><defs><filter id="filter0_d" x="3.24516" y="8.03226" width="93.5098" height="93.5098" filterUnits="userSpaceOnUse" color-interpolation-filters="sRGB"><feGaussianBlur stdDeviation="8.37742"></feGaussianBlur></filter><clipPath id="clip0"><rect width="100" height="100" fill="white"></rect></clipPath></defs></svg>