<svg xmlns="http://www.w3.org/2000/svg" width="100" height="100" viewBox="0 0 100 100" fill="none"><g clip-path="url(#clip0)"><path d="M100 0H0V100H100V0Z" fill="white"></path><path d="M100 0H0V100H100V0Z" fill="#FFEFEF"></path><g filter="url(#filter0_d)"><path d="M75.4968 34.3125H25.3545V66.7526H75.4968V34.3125Z" fill="white" fill-opacity="0.01"></path><path fill-rule="evenodd" clip-rule="evenodd" d="M66.1495 20.5718C70.5343 20.5718 74.7524 22.3048 77.8554 25.4143C80.9617 28.5174 82.698 32.7028 82.698 37.0843V62.9158C82.698 72.0386 75.2755 79.4284 66.1495 79.4284H33.847C24.721 79.4284 17.3018 72.0386 17.3018 62.9158V37.0843C17.3018 27.9615 24.6883 20.5718 33.847 20.5718H66.1495ZM71.3516 41.9563L71.6132 41.6947C72.3947 40.7465 72.3947 39.3732 71.5772 38.4249C71.1227 37.9377 70.4982 37.6402 69.8475 37.5748C69.1608 37.5388 68.5068 37.7709 68.0131 38.2287L53.2695 50C51.373 51.5728 48.6558 51.5728 46.7299 50L32.0157 38.2287C30.9988 37.4767 29.5928 37.5748 28.7459 38.4576C27.8631 39.3405 27.765 40.7465 28.5138 41.7274L28.9421 42.1525L43.8198 53.7603C45.6509 55.1991 47.8711 55.9838 50.1959 55.9838C52.5142 55.9838 54.7736 55.1991 56.6015 53.7603L71.3516 41.9563Z" fill="#FF3951"></path></g><path d="M75.4968 34.3125H25.3545V66.7526H75.4968V34.3125Z" fill="white"></path><path fill-rule="evenodd" clip-rule="evenodd" d="M66.1495 20.5718C70.5343 20.5718 74.7524 22.3048 77.8554 25.4143C80.9617 28.5174 82.698 32.7028 82.698 37.0843V62.9158C82.698 72.0386 75.2755 79.4284 66.1495 79.4284H33.847C24.721 79.4284 17.3018 72.0386 17.3018 62.9158V37.0843C17.3018 27.9615 24.6883 20.5718 33.847 20.5718H66.1495ZM71.3516 41.9563L71.6132 41.6947C72.3947 40.7465 72.3947 39.3732 71.5772 38.4249C71.1227 37.9377 70.4982 37.6402 69.8475 37.5748C69.1608 37.5388 68.5068 37.7709 68.0131 38.2287L53.2695 50C51.373 51.5728 48.6558 51.5728 46.7299 50L32.0157 38.2287C30.9988 37.4767 29.5928 37.5748 28.7459 38.4576C27.8631 39.3405 27.765 40.7465 28.5138 41.7274L28.9421 42.1525L43.8198 53.7603C45.6509 55.1991 47.8711 55.9838 50.1959 55.9838C52.5142 55.9838 54.7736 55.1991 56.6015 53.7603L71.3516 41.9563Z" fill="#FF3951"></path></g><defs><filter id="filter0_d" x="-9.50224" y="0.468767" width="119.004" height="112.465" filterUnits="userSpaceOnUse" color-interpolation-filters="sRGB"><feGaussianBlur stdDeviation="13.402"></feGaussianBlur></filter><clipPath id="clip0"><rect width="100" height="100" fill="white"></rect></clipPath></defs></svg>