<svg xmlns="http://www.w3.org/2000/svg" width="100" height="100" viewBox="0 0 100 100" fill="none"><g clip-path="url(#clip0)"><path d="M100 0H0V100H100V0Z" fill="white"></path><path d="M100 0H0V100H100V0Z" fill="#E1F7FF"></path><g filter="url(#filter0_d)"><path d="M48.2584 77.4595C62.4046 77.4595 73.8723 65.9918 73.8723 51.8456C73.8723 37.6994 62.4046 26.2317 48.2584 26.2317C34.1123 26.2317 22.6445 37.6994 22.6445 51.8456C22.6445 65.9918 34.1123 77.4595 48.2584 77.4595Z" fill="white" fill-opacity="0.01"></path><path fill-rule="evenodd" clip-rule="evenodd" d="M14.9248 50C14.9248 30.6285 30.6285 14.9248 50 14.9248C69.3715 14.9248 85.0752 30.6285 85.0752 50C85.0752 69.3715 69.3715 85.0752 50 85.0752C30.6285 85.0752 14.9248 69.3715 14.9248 50ZM68.045 50.2655C68.2374 49.6346 68.2792 48.9674 68.1672 48.3175C68.0551 47.6675 67.7923 47.0528 67.3997 46.5228C67.0072 45.9928 66.4959 45.5622 65.9068 45.2655C65.3177 44.9688 64.6673 44.8144 64.0077 44.8145H55.4421C55.1181 44.8146 54.7993 44.7325 54.5156 44.576C54.2319 44.4195 53.9925 44.1937 53.8197 43.9196C53.6469 43.6454 53.5464 43.332 53.5276 43.0085C53.5088 42.6851 53.5723 42.3621 53.7121 42.0698L55.9042 37.4754C56.1052 36.8785 56.1515 36.2404 56.0387 35.6208C55.926 35.0011 55.6578 34.4202 55.2594 33.9325C54.8913 33.4789 54.4231 33.1169 53.8915 32.8746C53.36 32.6323 52.7796 32.5165 52.1957 32.5361C51.6119 32.5557 51.0406 32.7103 50.5265 32.9877C50.0125 33.2651 49.5696 33.6579 49.2328 34.1351L41.7263 44.77C41.5489 45.0206 41.314 45.2251 41.0413 45.3664C40.7687 45.5077 40.4661 45.5816 40.159 45.582C39.9701 45.582 39.789 45.6571 39.6554 45.7907C39.5218 45.9242 39.4468 46.1054 39.4468 46.2943V63.6605C39.4468 63.8046 39.4874 63.9459 39.5639 64.0681C39.6405 64.1902 39.7499 64.2884 39.8796 64.3512C45.5594 67.1021 47.446 67.4659 52.0711 67.4659C52.2893 67.4659 52.9262 67.4607 53.6783 67.4546H53.6801C54.7638 67.4459 56.0861 67.4352 56.7392 67.4352C60.8532 67.4352 63.5902 65.0481 65.1145 60.0991L68.0311 50.3223L68.045 50.2655ZM37.1043 45.5819H37.1442V64.3864C37.1442 64.9971 36.9016 65.5828 36.4698 66.0146C36.038 66.4464 35.4523 66.689 34.8416 66.689H32.539C32.3354 66.689 32.1402 66.6081 31.9963 66.4642C31.8523 66.3203 31.7715 66.125 31.7715 65.9215V44.4306C31.7715 44.227 31.8523 44.0318 31.9963 43.8879C32.1402 43.7439 32.3354 43.6631 32.539 43.6631H34.8416C35.3844 43.6649 35.9092 43.8584 36.3232 44.2095C36.7372 44.5606 37.0138 45.0467 37.1043 45.5819Z" fill="#3FCFFD" fill-opacity="0.01"></path></g><path d="M48.2584 77.4595C62.4046 77.4595 73.8723 65.9918 73.8723 51.8456C73.8723 37.6994 62.4046 26.2317 48.2584 26.2317C34.1123 26.2317 22.6445 37.6994 22.6445 51.8456C22.6445 65.9918 34.1123 77.4595 48.2584 77.4595Z" fill="white"></path><path fill-rule="evenodd" clip-rule="evenodd" d="M14.9248 50C14.9248 30.6285 30.6285 14.9248 50 14.9248C69.3715 14.9248 85.0752 30.6285 85.0752 50C85.0752 69.3715 69.3715 85.0752 50 85.0752C30.6285 85.0752 14.9248 69.3715 14.9248 50ZM68.045 50.2655C68.2374 49.6346 68.2792 48.9674 68.1672 48.3175C68.0551 47.6675 67.7923 47.0528 67.3997 46.5228C67.0072 45.9928 66.4959 45.5622 65.9068 45.2655C65.3177 44.9688 64.6673 44.8144 64.0077 44.8145H55.4421C55.1181 44.8146 54.7993 44.7325 54.5156 44.576C54.2319 44.4195 53.9925 44.1937 53.8197 43.9196C53.6469 43.6454 53.5464 43.332 53.5276 43.0085C53.5088 42.6851 53.5723 42.3621 53.7121 42.0698L55.9042 37.4754C56.1052 36.8785 56.1515 36.2404 56.0387 35.6208C55.926 35.0011 55.6578 34.4202 55.2594 33.9325C54.8913 33.4789 54.4231 33.1169 53.8915 32.8746C53.36 32.6323 52.7796 32.5165 52.1957 32.5361C51.6119 32.5557 51.0406 32.7103 50.5265 32.9877C50.0125 33.2651 49.5696 33.6579 49.2328 34.1351L41.7263 44.77C41.5489 45.0206 41.314 45.2251 41.0413 45.3664C40.7687 45.5077 40.4661 45.5816 40.159 45.582C39.9701 45.582 39.789 45.6571 39.6554 45.7907C39.5218 45.9242 39.4468 46.1054 39.4468 46.2943V63.6605C39.4468 63.8046 39.4874 63.9459 39.5639 64.0681C39.6405 64.1902 39.7499 64.2884 39.8796 64.3512C45.5594 67.1021 47.446 67.4659 52.0711 67.4659C52.2893 67.4659 52.9262 67.4607 53.6783 67.4546H53.6801C54.7638 67.4459 56.0861 67.4352 56.7392 67.4352C60.8532 67.4352 63.5902 65.0481 65.1145 60.0991L68.0311 50.3223L68.045 50.2655ZM37.1043 45.5819H37.1442V64.3864C37.1442 64.9971 36.9016 65.5828 36.4698 66.0146C36.038 66.4464 35.4523 66.689 34.8416 66.689H32.539C32.3354 66.689 32.1402 66.6081 31.9963 66.4642C31.8523 66.3203 31.7715 66.125 31.7715 65.9215V44.4306C31.7715 44.227 31.8523 44.0318 31.9963 43.8879C32.1402 43.7439 32.3354 43.6631 32.539 43.6631H34.8416C35.3844 43.6649 35.9092 43.8584 36.3232 44.2095C36.7372 44.5606 37.0138 45.0467 37.1043 45.5819Z" fill="#3FCFFD"></path></g><defs><filter id="filter0_d" x="0.924805" y="3.9248" width="98.1504" height="98.1504" filterUnits="userSpaceOnUse" color-interpolation-filters="sRGB"><feGaussianBlur stdDeviation="7"></feGaussianBlur></filter><clipPath id="clip0"><rect width="100" height="100" fill="white"></rect></clipPath></defs></svg>