<svg width="1242" height="699" viewBox="0 0 1242 699" fill="none" xmlns="http://www.w3.org/2000/svg">
<path d="M0 0H1242V699H0V0Z" fill="#009EFF"/>
<path d="M667.697 238.05V238H680.588L685.298 238.941C688.438 239.551 691.289 240.352 693.85 241.342C696.412 242.332 698.891 243.488 701.288 244.808C703.684 246.128 705.857 247.473 707.808 248.843C709.741 250.197 711.477 251.632 713.014 253.151C714.534 254.686 716.906 255.082 720.128 254.339C723.351 253.596 726.822 252.565 730.54 251.245C734.259 249.924 737.936 248.439 741.572 246.788C745.208 245.138 747.423 244.09 748.216 243.644C748.993 243.182 749.406 242.935 749.456 242.902L749.505 242.827L749.753 242.704L750.001 242.58L750.249 242.456L750.496 242.332L750.546 242.258L750.62 242.209L750.695 242.159L750.744 242.085L750.992 242.01L751.24 241.961L751.191 242.332L751.116 242.704L750.992 243.075L750.868 243.446L750.744 243.694L750.62 243.941L750.496 244.313C750.414 244.56 750.331 244.89 750.249 245.303C750.166 245.716 749.381 247.366 747.894 250.254C746.406 253.143 744.547 256.072 742.316 259.043C740.085 262.013 738.085 264.258 736.317 265.776C734.532 267.311 733.35 268.384 732.771 268.995C732.193 269.622 731.491 270.199 730.664 270.728L729.425 271.545L729.177 271.668L728.929 271.792L728.88 271.866L728.805 271.916L728.731 271.965L728.681 272.04L728.433 272.163L728.185 272.287L728.136 272.361L728.061 272.411L727.987 272.46L727.937 272.535L727.888 272.609L727.813 272.659L727.739 272.708L727.689 272.782H728.929L735.87 271.297C740.498 270.307 744.919 269.11 749.133 267.707L755.826 265.479L756.57 265.232L756.942 265.108L757.19 264.984L757.438 264.86L757.686 264.737L757.934 264.613L758.429 264.539L758.925 264.489V264.984L758.801 265.034L758.677 265.108L758.628 265.182L758.553 265.232L758.479 265.281L758.429 265.355L758.38 265.43L758.305 265.479L758.231 265.529L758.182 265.603L758.132 265.677L758.058 265.727L757.934 265.974L757.81 266.222L757.735 266.271C757.702 266.321 756.653 267.724 754.587 270.48C752.521 273.253 751.406 274.655 751.24 274.689C751.075 274.738 750.844 274.986 750.546 275.431C750.265 275.893 748.513 277.734 745.291 280.952C742.068 284.17 738.911 287.033 735.821 289.542C732.714 292.067 731.144 295.17 731.111 298.851C731.061 302.514 730.871 306.657 730.54 311.278C730.21 315.899 729.59 320.892 728.681 326.256C727.772 331.619 726.367 337.685 724.467 344.451C722.566 351.218 720.252 357.82 717.525 364.256C714.798 370.693 711.947 376.469 708.973 381.585C705.998 386.702 703.271 391.034 700.792 394.582C698.313 398.131 695.793 401.473 693.231 404.609C690.669 407.744 687.43 411.276 683.513 415.204C679.58 419.116 677.431 421.261 677.068 421.641C676.688 422.004 675.068 423.357 672.209 425.701C669.366 428.061 666.308 430.421 663.036 432.781C659.78 435.125 656.789 437.08 654.062 438.648C651.335 440.216 648.046 442.007 644.195 444.02C640.361 446.05 636.213 447.932 631.751 449.665C627.288 451.398 622.578 453.007 617.62 454.492C612.662 455.978 607.869 457.133 603.242 457.958C598.614 458.783 593.367 459.485 587.5 460.062L578.699 460.929V461.053H562.585V460.929L560.478 460.805C559.074 460.723 557.917 460.64 557.008 460.557C556.099 460.475 552.669 460.021 546.72 459.196C540.77 458.371 536.101 457.545 532.713 456.72C529.325 455.895 524.284 454.327 517.591 452.017C510.898 449.706 505.171 447.371 500.411 445.011C495.668 442.667 492.693 441.182 491.487 440.554C490.297 439.944 488.958 439.185 487.471 438.277L485.24 436.915L485.19 436.841L485.116 436.792L485.041 436.742L484.992 436.668L484.744 436.544L484.496 436.42L484.446 436.346L484.372 436.296L484.297 436.247L484.248 436.173L484.199 436.098L484.124 436.049H484V435.554L484.248 435.603L484.496 435.677L485.611 435.801C486.355 435.884 488.38 436.008 491.685 436.173C494.991 436.338 498.502 436.338 502.221 436.173C505.939 436.008 509.741 435.636 513.624 435.059C517.508 434.481 522.095 433.491 527.383 432.088C532.672 430.685 537.531 429.018 541.96 427.087C546.373 425.14 549.513 423.687 551.38 422.73C553.231 421.789 556.057 420.04 559.859 417.482L565.56 413.645L565.61 413.57L565.684 413.521L565.759 413.471L565.808 413.397L565.858 413.323L565.932 413.273L566.007 413.224L566.056 413.149L566.304 413.075L566.552 413.026L566.602 412.778L566.676 412.531L566.751 412.481L566.8 412.407L564.817 412.283C563.495 412.201 562.214 412.118 560.974 412.035C559.735 411.953 557.793 411.582 555.148 410.921C552.504 410.261 549.653 409.271 546.596 407.951C543.538 406.63 540.563 405.062 537.671 403.247C534.779 401.432 532.688 399.921 531.399 398.717C530.127 397.528 528.474 395.845 526.441 393.666C524.425 391.472 522.673 389.218 521.186 386.908C519.698 384.597 518.277 381.932 516.922 378.912L514.864 374.406L514.74 374.035L514.616 373.663L514.542 373.416L514.492 373.168L514.864 373.218L515.236 373.292L517.963 373.663C519.781 373.911 522.632 373.993 526.515 373.911C530.399 373.829 533.085 373.663 534.572 373.416C536.06 373.168 536.969 373.003 537.299 372.921L537.795 372.797L538.415 372.673L539.035 372.549L539.084 372.475L539.159 372.426L539.233 372.376L539.283 372.302L538.787 372.178L538.291 372.054L537.795 371.931L537.299 371.807L536.803 371.683C536.473 371.601 535.895 371.435 535.068 371.188C534.242 370.94 532.011 370.032 528.375 368.465C524.739 366.897 521.847 365.37 519.698 363.885C517.544 362.395 515.49 360.766 513.55 359.008C511.616 357.225 509.493 354.931 507.179 352.126C504.865 349.32 502.8 346.06 500.981 342.347C499.164 338.634 497.8 335.085 496.891 331.702C495.986 328.338 495.388 324.9 495.106 321.428L494.66 316.229L494.908 316.279L495.156 316.353L495.404 316.477L495.651 316.601L495.899 316.724L496.147 316.848L499.99 318.581C502.552 319.736 505.733 320.727 509.534 321.552C513.335 322.377 515.608 322.831 516.351 322.913L517.467 323.037H519.698L519.649 322.963L519.574 322.913L519.5 322.864L519.45 322.79L519.401 322.715L519.326 322.666L519.252 322.616L519.202 322.542L518.954 322.418L518.707 322.295L518.657 322.22L518.583 322.171L518.508 322.121L518.459 322.047L518.211 321.923L517.963 321.799L517.913 321.725C517.864 321.692 517.153 321.164 515.781 320.141C514.426 319.101 513.005 317.756 511.517 316.106C510.03 314.455 508.542 312.722 507.055 310.907C505.565 309.087 504.238 307.141 503.089 305.089C501.932 303.026 500.709 300.402 499.42 297.217C498.147 294.048 497.18 290.854 496.519 287.636C495.858 284.418 495.486 281.241 495.404 278.105C495.321 274.969 495.404 272.287 495.651 270.059C495.899 267.831 496.395 265.314 497.139 262.509C497.883 259.703 498.957 256.732 500.362 253.596L502.469 248.893L502.593 248.521L502.717 248.15L502.791 248.1L502.841 248.026L502.89 247.952L502.965 247.902L503.039 247.952L503.089 248.026L503.138 248.1L503.213 248.15L503.287 248.2L503.336 248.274L503.386 248.348L503.46 248.398L503.584 248.645L503.708 248.893L503.783 248.942L503.832 249.016L507.179 252.73C509.41 255.205 512.055 257.97 515.112 261.023C518.17 264.076 519.863 265.661 520.194 265.776C520.525 265.908 520.938 266.288 521.433 266.915C521.929 267.526 523.582 268.986 526.392 271.297C529.201 273.607 532.878 276.29 537.423 279.343C541.968 282.396 547.009 285.408 552.545 288.379C558.082 291.349 564.032 294.031 570.394 296.424C576.757 298.818 581.22 300.385 583.781 301.128C586.343 301.871 590.723 302.82 596.92 303.975C603.118 305.13 607.787 305.873 610.927 306.203C614.067 306.533 616.215 306.723 617.372 306.772L619.108 306.822L619.058 306.451L618.984 306.079L618.488 302.985C618.157 300.922 617.992 298.034 617.992 294.32C617.992 290.607 618.281 287.182 618.86 284.046C619.438 280.911 620.306 277.734 621.463 274.515C622.62 271.297 623.752 268.714 624.859 266.767C625.983 264.836 627.454 262.632 629.272 260.157C631.09 257.681 633.445 255.123 636.337 252.482C639.229 249.842 642.534 247.49 646.253 245.427C649.972 243.364 653.401 241.796 656.541 240.723C659.681 239.65 662.326 238.949 664.474 238.619C666.622 238.289 667.697 238.099 667.697 238.05Z" fill="white"/>
</svg>
